<svg width="207" height="24" viewBox="0 0 207 24" fill="none" xmlns="http://www.w3.org/2000/svg">
<g opacity="0.9" filter="url(#filter0_d)">
<path d="M10.6604 0.927999C11.1404 0.927999 11.5831 0.986666 11.9884 1.104C12.3938 1.22133 12.7938 1.376 13.1884 1.568C13.3058 1.62133 13.4124 1.67467 13.5084 1.728C13.6151 1.77067 13.7058 1.792 13.7804 1.792C13.9511 1.792 14.0631 1.69067 14.1164 1.488C14.1271 1.44533 14.1591 1.41333 14.2124 1.392C14.2764 1.37067 14.3351 1.36533 14.3884 1.376C14.4524 1.376 14.5058 1.38667 14.5484 1.408C14.5911 1.42933 14.6071 1.46133 14.5964 1.504C14.5538 1.67467 14.5218 1.85067 14.5004 2.032C14.4898 2.21333 14.4844 2.4 14.4844 2.592C14.4844 2.89067 14.5058 3.18933 14.5484 3.488C14.5911 3.78667 14.6338 4.096 14.6764 4.416C14.6764 4.45867 14.6498 4.496 14.5964 4.528C14.5538 4.54933 14.4951 4.56533 14.4204 4.576C14.3564 4.576 14.2924 4.56533 14.2284 4.544C14.1644 4.52267 14.1271 4.48533 14.1164 4.432C13.8498 3.472 13.4178 2.768 12.8204 2.32C12.2231 1.86133 11.4711 1.632 10.5644 1.632C9.86044 1.632 9.27911 1.78133 8.82044 2.08C8.36177 2.37867 7.99377 2.768 7.71644 3.248C7.44977 3.71733 7.26311 4.24 7.15644 4.816C7.04977 5.38133 6.99644 5.936 6.99644 6.48C6.99644 7.07733 7.06044 7.67467 7.18844 8.272C7.31644 8.86933 7.52444 9.408 7.81244 9.888C8.10044 10.368 8.47377 10.7627 8.93244 11.072C9.40177 11.3707 9.96711 11.52 10.6284 11.52C11.1404 11.52 11.5991 11.4773 12.0044 11.392C12.4098 11.296 12.7511 11.1253 13.0284 10.88C13.3698 10.5707 13.6418 10.2027 13.8444 9.776C14.0471 9.33867 14.1911 8.848 14.2764 8.304C14.2871 8.22933 14.3191 8.18133 14.3724 8.16C14.4364 8.13867 14.5004 8.13867 14.5644 8.16C14.6284 8.17067 14.6871 8.19733 14.7404 8.24C14.7938 8.28267 14.8151 8.32533 14.8044 8.368C14.7724 8.58133 14.7511 8.79467 14.7404 9.008C14.7298 9.21067 14.7244 9.41867 14.7244 9.632C14.7244 9.99467 14.7351 10.368 14.7564 10.752C14.7884 11.1253 14.8151 11.52 14.8364 11.936C14.8364 12 14.8151 12.048 14.7724 12.08C14.7298 12.112 14.6764 12.128 14.6124 12.128C14.5591 12.1387 14.5058 12.128 14.4524 12.096C14.3991 12.0747 14.3671 12.0373 14.3564 11.984C14.3351 11.888 14.2978 11.7973 14.2444 11.712C14.1911 11.616 14.1218 11.5413 14.0364 11.488C13.9511 11.424 13.8498 11.392 13.7324 11.392C13.6258 11.392 13.5031 11.4293 13.3644 11.504C13.1298 11.632 12.9004 11.744 12.6764 11.84C12.4631 11.9253 12.2444 11.9947 12.0204 12.048C11.7964 12.1013 11.5618 12.1387 11.3164 12.16C11.0711 12.1813 10.8044 12.192 10.5164 12.192C8.62844 12.192 7.22577 11.7227 6.30844 10.784C5.40177 9.83467 4.94844 8.48 4.94844 6.72C4.94844 5.78133 5.09244 4.95467 5.38044 4.24C5.66844 3.51467 6.06311 2.90667 6.56444 2.416C7.07644 1.92533 7.67911 1.55733 8.37244 1.312C9.07644 1.056 9.83911 0.927999 10.6604 0.927999ZM20.3157 8.688C20.3157 8.57067 20.3104 8.50133 20.2997 8.48C20.289 8.448 20.2624 8.432 20.2197 8.432C19.345 8.50667 18.6944 8.69333 18.2677 8.992C17.8517 9.28 17.6437 9.65333 17.6437 10.112C17.6437 10.432 17.7237 10.704 17.8837 10.928C18.0437 11.1413 18.3104 11.248 18.6837 11.248C18.929 11.248 19.185 11.2 19.4517 11.104C19.729 11.008 19.9744 10.8693 20.1877 10.688C20.273 10.6027 20.3157 10.5173 20.3157 10.432V8.688ZM21.8197 10.272C21.8197 10.6453 21.8517 10.9067 21.9157 11.056C21.9904 11.2053 22.129 11.28 22.3317 11.28C22.449 11.28 22.545 11.2693 22.6197 11.248C22.6944 11.216 22.801 11.1573 22.9397 11.072C22.9717 11.0507 23.0037 11.0507 23.0357 11.072C23.0784 11.0933 23.1104 11.1253 23.1317 11.168C23.1637 11.2 23.185 11.2427 23.1957 11.296C23.2064 11.3387 23.1957 11.376 23.1637 11.408C22.7477 11.9093 22.257 12.16 21.6917 12.16C21.3824 12.16 21.1157 12.08 20.8917 11.92C20.6784 11.7493 20.5184 11.552 20.4117 11.328C20.3904 11.2747 20.3584 11.2693 20.3157 11.312C20.0384 11.5573 19.713 11.76 19.3397 11.92C18.977 12.08 18.5184 12.16 17.9637 12.16C17.3557 12.16 16.8864 12 16.5557 11.68C16.225 11.3493 16.0597 10.8853 16.0597 10.288C16.0597 9.52 16.417 8.93333 17.1317 8.528C17.8464 8.112 18.8864 7.904 20.2517 7.904C20.273 7.904 20.289 7.87733 20.2997 7.824C20.3104 7.77067 20.3157 7.648 20.3157 7.456V7.024C20.3157 6.75733 20.2944 6.50667 20.2517 6.272C20.209 6.03733 20.1344 5.83467 20.0277 5.664C19.9317 5.48267 19.793 5.344 19.6117 5.248C19.4304 5.14133 19.2064 5.088 18.9397 5.088C18.545 5.088 18.225 5.168 17.9797 5.328C17.7344 5.47733 17.6117 5.67467 17.6117 5.92C17.6117 6.03733 17.649 6.15467 17.7237 6.272C17.7984 6.37867 17.8357 6.49067 17.8357 6.608C17.8357 6.75733 17.761 6.90133 17.6117 7.04C17.4624 7.17867 17.281 7.248 17.0677 7.248C16.7797 7.248 16.5717 7.17333 16.4437 7.024C16.3264 6.864 16.2677 6.672 16.2677 6.448C16.2677 6.18133 16.3424 5.93067 16.4917 5.696C16.641 5.45067 16.8437 5.24267 17.0997 5.072C17.3557 4.90133 17.6544 4.768 17.9957 4.672C18.337 4.56533 18.6944 4.512 19.0677 4.512C19.921 4.512 20.593 4.70933 21.0837 5.104C21.5744 5.49867 21.8197 6.15467 21.8197 7.072V10.272ZM26.6231 10.064C26.6231 10.3307 26.6284 10.5547 26.6391 10.736C26.6604 10.9173 26.7191 11.0667 26.8151 11.184C26.9111 11.3013 27.0604 11.392 27.2631 11.456C27.4657 11.52 27.7591 11.568 28.1431 11.6C28.2071 11.6107 28.2551 11.6427 28.2871 11.696C28.3191 11.7387 28.3351 11.792 28.3351 11.856C28.3351 11.9093 28.3191 11.9573 28.2871 12C28.2551 12.0533 28.2071 12.08 28.1431 12.08C27.6844 12.08 27.2791 12.0587 26.9271 12.016C26.5751 11.984 26.2391 11.968 25.9191 11.968C25.5777 11.968 25.2364 11.984 24.8951 12.016C24.5644 12.0587 24.2284 12.08 23.8871 12.08C23.8337 12.08 23.7911 12.0533 23.7591 12C23.7271 11.9573 23.7111 11.9093 23.7111 11.856C23.7111 11.792 23.7271 11.7387 23.7591 11.696C23.7911 11.6427 23.8391 11.6107 23.9031 11.6C24.2017 11.568 24.4311 11.52 24.5911 11.456C24.7617 11.392 24.8844 11.3067 24.9591 11.2C25.0337 11.0827 25.0764 10.944 25.0871 10.784C25.1084 10.6133 25.1191 10.4053 25.1191 10.16V7.824C25.1191 7.30133 25.1084 6.89067 25.0871 6.592C25.0657 6.28267 25.0124 6.048 24.9271 5.888C24.8524 5.71733 24.7297 5.60533 24.5591 5.552C24.3884 5.49867 24.1537 5.46133 23.8551 5.44C23.8017 5.44 23.7591 5.41333 23.7271 5.36C23.7057 5.30667 23.6951 5.25333 23.6951 5.2C23.6951 5.14667 23.7057 5.09333 23.7271 5.04C23.7591 4.98667 23.8071 4.96 23.8711 4.96C24.0844 4.93867 24.3777 4.91733 24.7511 4.896C25.1351 4.864 25.5244 4.79467 25.9191 4.688C26.0684 4.64533 26.1911 4.64 26.2871 4.672C26.3831 4.704 26.4257 4.79467 26.4151 4.944L26.3831 5.968C26.3831 5.98933 26.3884 6.00533 26.3991 6.016C26.4097 6.016 26.4257 6.00533 26.4471 5.984C26.6711 5.536 26.9431 5.17867 27.2631 4.912C27.5937 4.64533 28.0311 4.512 28.5751 4.512C29.0231 4.512 29.3537 4.62933 29.5671 4.864C29.7804 5.088 29.8871 5.36533 29.8871 5.696C29.8871 5.87733 29.8177 6.04267 29.6791 6.192C29.5404 6.34133 29.3431 6.416 29.0871 6.416C28.8417 6.416 28.6711 6.35733 28.5751 6.24C28.4791 6.12267 28.4311 5.99467 28.4311 5.856C28.4311 5.70667 28.3991 5.58933 28.3351 5.504C28.2817 5.41867 28.1591 5.376 27.9671 5.376C27.7644 5.376 27.5777 5.44533 27.4071 5.584C27.2471 5.712 27.1084 5.86667 26.9911 6.048C26.8737 6.22933 26.7831 6.416 26.7191 6.608C26.6551 6.8 26.6231 6.94933 26.6231 7.056V10.064ZM34.8701 8.688C34.8701 8.57067 34.8647 8.50133 34.8541 8.48C34.8434 8.448 34.8167 8.432 34.7741 8.432C33.8994 8.50667 33.2487 8.69333 32.8221 8.992C32.4061 9.28 32.1981 9.65333 32.1981 10.112C32.1981 10.432 32.2781 10.704 32.4381 10.928C32.5981 11.1413 32.8647 11.248 33.2381 11.248C33.4834 11.248 33.7394 11.2 34.0061 11.104C34.2834 11.008 34.5287 10.8693 34.7421 10.688C34.8274 10.6027 34.8701 10.5173 34.8701 10.432V8.688ZM36.3741 10.272C36.3741 10.6453 36.4061 10.9067 36.4701 11.056C36.5447 11.2053 36.6834 11.28 36.8861 11.28C37.0034 11.28 37.0994 11.2693 37.1741 11.248C37.2487 11.216 37.3554 11.1573 37.4941 11.072C37.5261 11.0507 37.5581 11.0507 37.5901 11.072C37.6327 11.0933 37.6647 11.1253 37.6861 11.168C37.7181 11.2 37.7394 11.2427 37.7501 11.296C37.7607 11.3387 37.7501 11.376 37.7181 11.408C37.3021 11.9093 36.8114 12.16 36.2461 12.16C35.9367 12.16 35.6701 12.08 35.4461 11.92C35.2327 11.7493 35.0727 11.552 34.9661 11.328C34.9447 11.2747 34.9127 11.2693 34.8701 11.312C34.5927 11.5573 34.2674 11.76 33.8941 11.92C33.5314 12.08 33.0727 12.16 32.5181 12.16C31.9101 12.16 31.4407 12 31.1101 11.68C30.7794 11.3493 30.6141 10.8853 30.6141 10.288C30.6141 9.52 30.9714 8.93333 31.6861 8.528C32.4007 8.112 33.4407 7.904 34.8061 7.904C34.8274 7.904 34.8434 7.87733 34.8541 7.824C34.8647 7.77067 34.8701 7.648 34.8701 7.456V7.024C34.8701 6.75733 34.8487 6.50667 34.8061 6.272C34.7634 6.03733 34.6887 5.83467 34.5821 5.664C34.4861 5.48267 34.3474 5.344 34.1661 5.248C33.9847 5.14133 33.7607 5.088 33.4941 5.088C33.0994 5.088 32.7794 5.168 32.5341 5.328C32.2887 5.47733 32.1661 5.67467 32.1661 5.92C32.1661 6.03733 32.2034 6.15467 32.2781 6.272C32.3527 6.37867 32.3901 6.49067 32.3901 6.608C32.3901 6.75733 32.3154 6.90133 32.1661 7.04C32.0167 7.17867 31.8354 7.248 31.6221 7.248C31.3341 7.248 31.1261 7.17333 30.9981 7.024C30.8807 6.864 30.8221 6.672 30.8221 6.448C30.8221 6.18133 30.8967 5.93067 31.0461 5.696C31.1954 5.45067 31.3981 5.24267 31.6541 5.072C31.9101 4.90133 32.2087 4.768 32.5501 4.672C32.8914 4.56533 33.2487 4.512 33.6221 4.512C34.4754 4.512 35.1474 4.70933 35.6381 5.104C36.1287 5.49867 36.3741 6.15467 36.3741 7.072V10.272ZM44.4689 3.2C44.4689 2.88 44.4423 2.62933 44.3889 2.448C44.3463 2.26667 44.2663 2.128 44.1489 2.032C44.0423 1.92533 43.8983 1.856 43.7169 1.824C43.5356 1.78133 43.3063 1.74933 43.0289 1.728C42.9649 1.728 42.9116 1.70133 42.8689 1.648C42.8369 1.584 42.8209 1.52 42.8209 1.456C42.8209 1.392 42.8369 1.33333 42.8689 1.28C42.9116 1.22667 42.9649 1.2 43.0289 1.2C43.1249 1.2 43.2689 1.2 43.4609 1.2C43.6636 1.2 43.8876 1.20533 44.1329 1.216C44.3783 1.216 44.6289 1.22133 44.8849 1.232C45.1516 1.232 45.3916 1.24267 45.6049 1.264C45.8183 1.27467 45.9943 1.296 46.1329 1.328C46.2823 1.34933 46.3676 1.38133 46.3889 1.424L49.6369 9.056C49.6583 9.088 49.6796 9.104 49.7009 9.104C49.7329 9.104 49.7596 9.088 49.7809 9.056L52.9809 1.424C52.9916 1.38133 53.1249 1.34933 53.3809 1.328C53.6476 1.296 53.9516 1.27467 54.2929 1.264C54.6449 1.24267 54.9969 1.22667 55.3489 1.216C55.7116 1.20533 55.9996 1.2 56.2129 1.2C56.2769 1.2 56.3196 1.22667 56.3409 1.28C56.3729 1.33333 56.3889 1.392 56.3889 1.456C56.3889 1.52 56.3729 1.57867 56.3409 1.632C56.3089 1.68533 56.2663 1.71733 56.2129 1.728C55.8503 1.792 55.5676 1.85067 55.3649 1.904C55.1623 1.95733 55.0129 2.05867 54.9169 2.208C54.8209 2.34667 54.7623 2.55467 54.7409 2.832C54.7196 3.10933 54.7089 3.504 54.7089 4.016V9.92C54.7089 10.272 54.7303 10.5493 54.7729 10.752C54.8156 10.944 54.8903 11.0933 54.9969 11.2C55.1143 11.3067 55.2743 11.3867 55.4769 11.44C55.6796 11.4827 55.9409 11.52 56.2609 11.552C56.3249 11.5627 56.3729 11.6 56.4049 11.664C56.4476 11.7173 56.4689 11.776 56.4689 11.84C56.4689 11.904 56.4476 11.9627 56.4049 12.016C56.3729 12.0693 56.3196 12.096 56.2449 12.096C55.8183 12.096 55.4076 12.0747 55.0129 12.032C54.6289 11.9893 54.2449 11.968 53.8609 11.968C53.4556 11.968 53.0343 11.9893 52.5969 12.032C52.1703 12.0747 51.7809 12.096 51.4289 12.096C51.3649 12.096 51.3169 12.0693 51.2849 12.016C51.2529 11.9627 51.2369 11.904 51.2369 11.84C51.2369 11.776 51.2529 11.7173 51.2849 11.664C51.3169 11.6 51.3649 11.5627 51.4289 11.552C51.7596 11.52 52.0209 11.4827 52.2129 11.44C52.4156 11.3867 52.5703 11.3067 52.6769 11.2C52.7943 11.0933 52.8689 10.944 52.9009 10.752C52.9436 10.5493 52.9649 10.272 52.9649 9.92V3.984C52.9649 3.90933 52.9223 3.87733 52.8369 3.888C52.7516 3.888 52.6983 3.92 52.6769 3.984L50.3729 9.408C50.2129 9.78133 50.0529 10.192 49.8929 10.64C49.7436 11.0773 49.5943 11.52 49.4449 11.968C49.4343 12 49.4023 12.0213 49.3489 12.032C49.3063 12.0533 49.2583 12.064 49.2049 12.064C49.1516 12.064 49.0983 12.0533 49.0449 12.032C49.0023 12.0213 48.9756 12 48.9649 11.968L45.4449 3.904C45.4236 3.85067 45.3756 3.81867 45.3009 3.808C45.2369 3.79733 45.2049 3.83467 45.2049 3.92V9.872C45.2049 10.256 45.2369 10.5547 45.3009 10.768C45.3649 10.9813 45.4556 11.1413 45.5729 11.248C45.7009 11.3547 45.8556 11.4293 46.0369 11.472C46.2183 11.504 46.4316 11.536 46.6769 11.568C46.7303 11.5787 46.7676 11.6107 46.7889 11.664C46.8209 11.7173 46.8369 11.776 46.8369 11.84C46.8369 11.904 46.8209 11.9627 46.7889 12.016C46.7676 12.0693 46.7249 12.096 46.6609 12.096C46.4263 12.096 46.1649 12.0747 45.8769 12.032C45.5996 11.9893 45.2689 11.968 44.8849 11.968C44.4796 11.968 44.1169 11.9893 43.7969 12.032C43.4876 12.0747 43.2263 12.096 43.0129 12.096C42.9596 12.096 42.9169 12.0693 42.8849 12.016C42.8529 11.9627 42.8316 11.904 42.8209 11.84C42.8209 11.776 42.8369 11.7173 42.8689 11.664C42.9009 11.6107 42.9489 11.5787 43.0129 11.568C43.2903 11.536 43.5196 11.504 43.7009 11.472C43.8929 11.4293 44.0423 11.3547 44.1489 11.248C44.2663 11.1413 44.3463 10.9813 44.3889 10.768C44.4423 10.5547 44.4689 10.256 44.4689 9.872V3.2ZM64.4076 9.216C64.4076 9.65333 64.4129 10.0107 64.4236 10.288C64.4449 10.5547 64.4929 10.768 64.5676 10.928C64.6529 11.0773 64.7756 11.184 64.9356 11.248C65.0956 11.3013 65.3196 11.328 65.6076 11.328C65.6502 11.328 65.6822 11.3547 65.7036 11.408C65.7356 11.4507 65.7516 11.504 65.7516 11.568C65.7516 11.6213 65.7409 11.6747 65.7196 11.728C65.6982 11.7813 65.6609 11.808 65.6076 11.808C65.5222 11.808 65.4476 11.8133 65.3836 11.824C65.3302 11.824 65.2716 11.8293 65.2076 11.84C65.1542 11.84 65.0902 11.8453 65.0156 11.856C64.9516 11.8667 64.8662 11.8773 64.7596 11.888C64.6742 11.8987 64.5516 11.92 64.3916 11.952C64.2422 11.984 64.0876 12.016 63.9276 12.048C63.7676 12.08 63.6182 12.1067 63.4796 12.128C63.3409 12.1493 63.2502 12.16 63.2076 12.16C63.0156 12.16 62.9196 11.8613 62.9196 11.264C62.9196 11.2427 62.9089 11.232 62.8876 11.232C62.8662 11.2213 62.8449 11.2267 62.8236 11.248C62.4289 11.5893 62.0289 11.8293 61.6236 11.968C61.2289 12.096 60.8449 12.16 60.4716 12.16C59.9809 12.16 59.5756 12.1013 59.2556 11.984C58.9356 11.856 58.6849 11.6747 58.5036 11.44C58.3222 11.2053 58.1942 10.9173 58.1196 10.576C58.0449 10.224 58.0076 9.82933 58.0076 9.392V7.584C58.0076 7.12533 57.9969 6.768 57.9756 6.512C57.9542 6.256 57.9062 6.064 57.8316 5.936C57.7569 5.808 57.6449 5.72267 57.4956 5.68C57.3462 5.63733 57.1436 5.6 56.8876 5.568C56.8342 5.568 56.7916 5.54133 56.7596 5.488C56.7382 5.43467 56.7222 5.38133 56.7116 5.328C56.7116 5.27467 56.7222 5.22133 56.7436 5.168C56.7756 5.11467 56.8236 5.088 56.8876 5.088C56.9942 5.07733 57.1329 5.06133 57.3036 5.04C57.4849 5.01867 57.6769 4.98667 57.8796 4.944C58.0822 4.90133 58.2902 4.85867 58.5036 4.816C58.7276 4.76267 58.9356 4.70933 59.1276 4.656C59.2769 4.61333 59.3782 4.64 59.4316 4.736C59.4849 4.82133 59.5116 4.896 59.5116 4.96V8.768C59.5116 9.19467 59.5276 9.55733 59.5596 9.856C59.6022 10.1547 59.6716 10.4 59.7676 10.592C59.8636 10.784 59.9969 10.9227 60.1676 11.008C60.3382 11.0933 60.5516 11.136 60.8076 11.136C61.1702 11.136 61.5489 11.072 61.9436 10.944C62.3382 10.816 62.6369 10.6613 62.8396 10.48C62.8716 10.448 62.8876 10.3893 62.8876 10.304C62.8982 10.2187 62.9036 10.1547 62.9036 10.112V7.584C62.9036 7.12533 62.8982 6.768 62.8876 6.512C62.8769 6.256 62.8396 6.064 62.7756 5.936C62.7116 5.808 62.6102 5.72267 62.4716 5.68C62.3436 5.63733 62.1516 5.6 61.8956 5.568C61.8422 5.55733 61.7996 5.53067 61.7676 5.488C61.7462 5.43467 61.7302 5.38133 61.7196 5.328C61.7196 5.264 61.7302 5.21067 61.7516 5.168C61.7836 5.11467 61.8316 5.088 61.8956 5.088C62.2796 5.06667 62.6316 5.01867 62.9516 4.944C63.2716 4.86933 63.6289 4.77333 64.0236 4.656C64.1729 4.61333 64.2742 4.64 64.3276 4.736C64.3809 4.82133 64.4076 4.896 64.4076 4.96V9.216ZM71.8603 5.968C71.6576 5.712 71.439 5.52533 71.2043 5.408C70.9696 5.28 70.687 5.216 70.3563 5.216C70.0363 5.216 69.7483 5.264 69.4923 5.36C69.2363 5.456 69.0176 5.62133 68.8363 5.856C68.6656 6.09067 68.5323 6.41067 68.4363 6.816C68.351 7.22133 68.3083 7.73333 68.3083 8.352C68.3083 8.71467 68.3456 9.072 68.4203 9.424C68.495 9.76533 68.6016 10.0747 68.7403 10.352C68.8896 10.6187 69.0656 10.8373 69.2683 11.008C69.4816 11.168 69.727 11.248 70.0043 11.248C70.4523 11.248 70.8203 11.1733 71.1083 11.024C71.407 10.864 71.6576 10.6613 71.8603 10.416V5.968ZM73.3643 9.216C73.3643 9.65333 73.3696 10.0107 73.3803 10.288C73.4016 10.5547 73.4496 10.768 73.5243 10.928C73.6096 11.0773 73.7323 11.184 73.8923 11.248C74.0523 11.3013 74.2763 11.328 74.5643 11.328C74.607 11.328 74.639 11.3547 74.6603 11.408C74.6923 11.4507 74.7083 11.504 74.7083 11.568C74.7083 11.6213 74.6976 11.6747 74.6763 11.728C74.655 11.7813 74.6176 11.808 74.5643 11.808C74.479 11.808 74.4043 11.8133 74.3403 11.824C74.287 11.824 74.2283 11.8293 74.1643 11.84C74.111 11.84 74.047 11.8453 73.9723 11.856C73.9083 11.8667 73.823 11.8773 73.7163 11.888C73.631 11.8987 73.5136 11.92 73.3643 11.952C73.215 11.984 73.0603 12.016 72.9003 12.048C72.7403 12.08 72.591 12.1067 72.4523 12.128C72.3136 12.1493 72.223 12.16 72.1803 12.16C72.095 12.16 72.0256 12.0853 71.9723 11.936C71.919 11.7867 71.8923 11.5787 71.8923 11.312C71.8923 11.2587 71.8763 11.2373 71.8443 11.248C71.823 11.2587 71.8016 11.2747 71.7803 11.296C71.4496 11.5947 71.1296 11.8133 70.8203 11.952C70.511 12.0907 70.1323 12.16 69.6843 12.16C69.215 12.16 68.7883 12.08 68.4043 11.92C68.031 11.7493 67.711 11.5147 67.4443 11.216C67.1883 10.9067 66.9856 10.5333 66.8363 10.096C66.6976 9.65867 66.6283 9.168 66.6283 8.624C66.6283 7.90933 66.7403 7.296 66.9643 6.784C67.1883 6.26133 67.4816 5.83467 67.8443 5.504C68.207 5.16267 68.6123 4.912 69.0603 4.752C69.519 4.592 69.9723 4.512 70.4203 4.512C70.6336 4.512 70.8683 4.53867 71.1243 4.592C71.3803 4.63467 71.6256 4.71467 71.8603 4.832V3.856C71.8603 3.39733 71.8496 3.03467 71.8283 2.768C71.807 2.49067 71.7483 2.27733 71.6523 2.128C71.567 1.97867 71.4283 1.87733 71.2363 1.824C71.055 1.77067 70.8043 1.728 70.4843 1.696C70.4416 1.696 70.4043 1.66933 70.3723 1.616C70.351 1.56267 70.3403 1.50933 70.3403 1.456C70.3403 1.40267 70.351 1.34933 70.3723 1.296C70.3936 1.24267 70.431 1.216 70.4843 1.216C70.6656 1.20533 70.863 1.19467 71.0763 1.184C71.2896 1.16267 71.5083 1.14133 71.7323 1.12C71.9563 1.09867 72.175 1.06667 72.3883 1.024C72.6016 0.981332 72.8043 0.933332 72.9963 0.879999C73.135 0.837332 73.2256 0.847999 73.2683 0.912C73.3216 0.965333 73.3536 1.024 73.3643 1.088V9.216ZM79.8732 8.688C79.8732 8.57067 79.8679 8.50133 79.8572 8.48C79.8465 8.448 79.8199 8.432 79.7772 8.432C78.9025 8.50667 78.2519 8.69333 77.8252 8.992C77.4092 9.28 77.2012 9.65333 77.2012 10.112C77.2012 10.432 77.2812 10.704 77.4412 10.928C77.6012 11.1413 77.8679 11.248 78.2412 11.248C78.4865 11.248 78.7425 11.2 79.0092 11.104C79.2865 11.008 79.5319 10.8693 79.7452 10.688C79.8305 10.6027 79.8732 10.5173 79.8732 10.432V8.688ZM81.3772 10.272C81.3772 10.6453 81.4092 10.9067 81.4732 11.056C81.5479 11.2053 81.6865 11.28 81.8892 11.28C82.0065 11.28 82.1025 11.2693 82.1772 11.248C82.2519 11.216 82.3585 11.1573 82.4972 11.072C82.5292 11.0507 82.5612 11.0507 82.5932 11.072C82.6359 11.0933 82.6679 11.1253 82.6892 11.168C82.7212 11.2 82.7425 11.2427 82.7532 11.296C82.7639 11.3387 82.7532 11.376 82.7212 11.408C82.3052 11.9093 81.8145 12.16 81.2492 12.16C80.9399 12.16 80.6732 12.08 80.4492 11.92C80.2359 11.7493 80.0759 11.552 79.9692 11.328C79.9479 11.2747 79.9159 11.2693 79.8732 11.312C79.5959 11.5573 79.2705 11.76 78.8972 11.92C78.5345 12.08 78.0759 12.16 77.5212 12.16C76.9132 12.16 76.4439 12 76.1132 11.68C75.7825 11.3493 75.6172 10.8853 75.6172 10.288C75.6172 9.52 75.9745 8.93333 76.6892 8.528C77.4039 8.112 78.4439 7.904 79.8092 7.904C79.8305 7.904 79.8465 7.87733 79.8572 7.824C79.8679 7.77067 79.8732 7.648 79.8732 7.456V7.024C79.8732 6.75733 79.8519 6.50667 79.8092 6.272C79.7665 6.03733 79.6919 5.83467 79.5852 5.664C79.4892 5.48267 79.3505 5.344 79.1692 5.248C78.9879 5.14133 78.7639 5.088 78.4972 5.088C78.1025 5.088 77.7825 5.168 77.5372 5.328C77.2919 5.47733 77.1692 5.67467 77.1692 5.92C77.1692 6.03733 77.2065 6.15467 77.2812 6.272C77.3559 6.37867 77.3932 6.49067 77.3932 6.608C77.3932 6.75733 77.3185 6.90133 77.1692 7.04C77.0199 7.17867 76.8385 7.248 76.6252 7.248C76.3372 7.248 76.1292 7.17333 76.0012 7.024C75.8839 6.864 75.8252 6.672 75.8252 6.448C75.8252 6.18133 75.8999 5.93067 76.0492 5.696C76.1985 5.45067 76.4012 5.24267 76.6572 5.072C76.9132 4.90133 77.2119 4.768 77.5532 4.672C77.8945 4.56533 78.2519 4.512 78.6252 4.512C79.4785 4.512 80.1505 4.70933 80.6412 5.104C81.1319 5.49867 81.3772 6.15467 81.3772 7.072V10.272ZM86.1166 5.664C86.1379 5.71733 86.1646 5.71733 86.1966 5.664C86.4739 5.30133 86.8152 5.01867 87.2206 4.816C87.6366 4.61333 88.0472 4.512 88.4526 4.512C89.3592 4.512 90.0099 4.76267 90.4046 5.264C90.8099 5.75467 91.0126 6.4 91.0126 7.2V10.16C91.0126 10.4373 91.0179 10.6613 91.0286 10.832C91.0499 11.0027 91.0872 11.1413 91.1406 11.248C91.2046 11.344 91.3006 11.4187 91.4286 11.472C91.5566 11.5147 91.7326 11.5573 91.9566 11.6C92.0206 11.6107 92.0686 11.6427 92.1006 11.696C92.1326 11.7493 92.1486 11.8027 92.1486 11.856C92.1486 11.9093 92.1326 11.9573 92.1006 12C92.0686 12.0533 92.0259 12.08 91.9726 12.08C91.8232 12.08 91.5939 12.0587 91.2846 12.016C90.9859 11.984 90.6766 11.968 90.3566 11.968C90.0152 11.968 89.6792 11.984 89.3486 12.016C89.0179 12.0587 88.7352 12.08 88.5006 12.08C88.4366 12.08 88.3886 12.0533 88.3566 12C88.3246 11.9573 88.3086 11.9093 88.3086 11.856C88.3086 11.792 88.3246 11.7387 88.3566 11.696C88.3886 11.6427 88.4419 11.6107 88.5166 11.6C88.7619 11.568 88.9486 11.5253 89.0766 11.472C89.2152 11.4187 89.3112 11.3387 89.3646 11.232C89.4286 11.1253 89.4659 10.9867 89.4766 10.816C89.4979 10.6453 89.5086 10.4267 89.5086 10.16V7.744C89.5086 7.47733 89.4872 7.21067 89.4446 6.944C89.4126 6.67733 89.3432 6.43733 89.2366 6.224C89.1406 6 88.9966 5.81867 88.8046 5.68C88.6126 5.54133 88.3566 5.472 88.0366 5.472C87.6952 5.472 87.4019 5.536 87.1566 5.664C86.9219 5.792 86.7246 5.94667 86.5646 6.128C86.4152 6.30933 86.3032 6.50133 86.2286 6.704C86.1539 6.90667 86.1166 7.08267 86.1166 7.232V10.064C86.1166 10.352 86.1219 10.592 86.1326 10.784C86.1432 10.9653 86.1752 11.1093 86.2286 11.216C86.2819 11.3227 86.3619 11.408 86.4686 11.472C86.5859 11.5253 86.7459 11.568 86.9486 11.6C87.0232 11.6107 87.0766 11.6427 87.1086 11.696C87.1406 11.7493 87.1566 11.8027 87.1566 11.856C87.1566 11.9093 87.1406 11.9573 87.1086 12C87.0766 12.0533 87.0286 12.08 86.9646 12.08C86.8259 12.08 86.6072 12.0587 86.3086 12.016C86.0206 11.984 85.7166 11.968 85.3966 11.968C85.0552 11.968 84.7299 11.984 84.4206 12.016C84.1112 12.0587 83.8339 12.08 83.5886 12.08C83.5246 12.08 83.4766 12.0533 83.4446 12C83.4126 11.9573 83.3966 11.9093 83.3966 11.856C83.3966 11.792 83.4126 11.7387 83.4446 11.696C83.4766 11.6427 83.5299 11.6107 83.6046 11.6C83.8499 11.568 84.0366 11.5253 84.1646 11.472C84.3032 11.4187 84.4046 11.3387 84.4686 11.232C84.5326 11.1253 84.5699 10.9867 84.5806 10.816C84.6019 10.6453 84.6126 10.4267 84.6126 10.16V3.872C84.6126 3.41333 84.6019 3.05067 84.5806 2.784C84.5592 2.50667 84.5059 2.29333 84.4206 2.144C84.3352 1.99467 84.2072 1.89333 84.0366 1.84C83.8659 1.78667 83.6312 1.744 83.3326 1.712C83.2792 1.712 83.2366 1.68533 83.2046 1.632C83.1832 1.57867 83.1672 1.52533 83.1566 1.472C83.1566 1.41867 83.1672 1.36533 83.1886 1.312C83.2206 1.25867 83.2686 1.232 83.3326 1.232C83.6419 1.21067 84.0206 1.17867 84.4686 1.136C84.9166 1.09333 85.3379 1.01333 85.7326 0.896C85.8819 0.853333 85.9779 0.864 86.0206 0.927999C86.0739 0.981333 86.1059 1.04 86.1166 1.104V5.664ZM100.973 5.632C100.973 5.73867 100.999 5.83467 101.053 5.92C101.117 6.00533 101.218 6.048 101.357 6.048H101.661C102.013 6.048 102.333 6.02133 102.621 5.968C102.919 5.904 103.175 5.792 103.389 5.632C103.602 5.472 103.767 5.25867 103.885 4.992C104.013 4.71467 104.077 4.35733 104.077 3.92C104.077 3.184 103.89 2.66133 103.517 2.352C103.154 2.032 102.626 1.872 101.933 1.872H101.389C101.186 1.872 101.063 1.93067 101.021 2.048C100.989 2.15467 100.973 2.34133 100.973 2.608V5.632ZM100.973 8.848C100.973 9.424 100.989 9.88267 101.021 10.224C101.063 10.5547 101.149 10.8053 101.277 10.976C101.405 11.136 101.586 11.2373 101.821 11.28C102.066 11.3227 102.391 11.344 102.797 11.344C103.437 11.344 103.895 11.168 104.173 10.816C104.461 10.464 104.605 9.93067 104.605 9.216C104.605 8.704 104.53 8.288 104.381 7.968C104.231 7.63733 104.029 7.38133 103.773 7.2C103.527 7.01867 103.234 6.896 102.893 6.832C102.551 6.75733 102.189 6.72 101.805 6.72H101.501C101.287 6.72 101.143 6.78933 101.069 6.928C101.005 7.06667 100.973 7.23733 100.973 7.44V8.848ZM99.2288 3.936C99.2288 3.70133 99.2182 3.472 99.1968 3.248C99.1862 3.024 99.1542 2.816 99.1008 2.624C99.0475 2.432 98.9622 2.26667 98.8448 2.128C98.7382 1.98933 98.5888 1.89333 98.3968 1.84C98.2795 1.808 98.1568 1.78133 98.0288 1.76C97.9008 1.73867 97.7782 1.72267 97.6608 1.712C97.5968 1.712 97.5488 1.68533 97.5168 1.632C97.4848 1.57867 97.4688 1.52 97.4688 1.456C97.4688 1.392 97.4848 1.33333 97.5168 1.28C97.5488 1.22667 97.5968 1.2 97.6608 1.2C98.0235 1.2 98.3488 1.21067 98.6368 1.232C98.9248 1.25333 99.2608 1.264 99.6448 1.264C99.8048 1.264 99.9808 1.264 100.173 1.264C100.375 1.25333 100.578 1.24267 100.781 1.232C100.994 1.22133 101.197 1.216 101.389 1.216C101.591 1.20533 101.773 1.2 101.933 1.2C102.349 1.2 102.786 1.23733 103.245 1.312C103.703 1.376 104.125 1.504 104.509 1.696C104.903 1.888 105.223 2.15467 105.469 2.496C105.725 2.82667 105.853 3.25867 105.853 3.792C105.853 4.12267 105.799 4.41067 105.693 4.656C105.597 4.90133 105.463 5.11467 105.293 5.296C105.122 5.47733 104.919 5.63733 104.685 5.776C104.45 5.904 104.205 6.016 103.949 6.112C103.863 6.144 103.826 6.18667 103.837 6.24C103.847 6.29333 103.885 6.33067 103.949 6.352C104.365 6.48 104.733 6.62933 105.053 6.8C105.383 6.96 105.661 7.152 105.885 7.376C106.109 7.6 106.279 7.86667 106.397 8.176C106.514 8.47467 106.573 8.832 106.573 9.248C106.573 9.80267 106.471 10.2613 106.269 10.624C106.077 10.9867 105.815 11.2747 105.485 11.488C105.154 11.6907 104.775 11.8347 104.349 11.92C103.933 12.0053 103.501 12.048 103.053 12.048C102.85 12.048 102.621 12.0427 102.365 12.032C102.119 12.0213 101.863 12.0107 101.597 12C101.33 12 101.058 11.9947 100.781 11.984C100.514 11.9733 100.263 11.968 100.029 11.968C99.8048 11.968 99.6022 11.9733 99.4208 11.984C99.2395 11.984 99.0635 11.9893 98.8928 12C98.7328 12.0107 98.5622 12.0213 98.3808 12.032C98.2102 12.0533 98.0128 12.0747 97.7888 12.096C97.7142 12.1067 97.6555 12.0853 97.6128 12.032C97.5702 11.9787 97.5435 11.92 97.5328 11.856C97.5328 11.792 97.5488 11.728 97.5808 11.664C97.6235 11.6 97.6875 11.5627 97.7728 11.552C98.0288 11.52 98.2475 11.4773 98.4288 11.424C98.6208 11.3707 98.7755 11.2907 98.8928 11.184C99.0102 11.0667 99.0955 10.9227 99.1488 10.752C99.2022 10.5813 99.2288 10.3573 99.2288 10.08V3.936ZM109.456 7.92C109.403 7.92 109.371 7.94133 109.36 7.984C109.36 8.016 109.36 8.05867 109.36 8.112C109.36 8.66667 109.419 9.136 109.536 9.52C109.664 9.904 109.835 10.2187 110.048 10.464C110.272 10.6987 110.534 10.8693 110.832 10.976C111.142 11.0827 111.472 11.136 111.824 11.136C112.187 11.136 112.539 11.1093 112.88 11.056C113.222 10.992 113.515 10.8587 113.76 10.656C113.814 10.6133 113.867 10.5973 113.92 10.608C113.984 10.6187 114.032 10.6453 114.064 10.688C114.107 10.7307 114.134 10.7787 114.144 10.832C114.155 10.8853 114.144 10.9333 114.112 10.976C113.771 11.424 113.387 11.7333 112.96 11.904C112.534 12.0747 112.006 12.16 111.376 12.16C110.736 12.16 110.182 12.064 109.712 11.872C109.254 11.68 108.87 11.4133 108.56 11.072C108.262 10.72 108.038 10.3147 107.888 9.856C107.75 9.38667 107.68 8.88 107.68 8.336C107.68 7.81333 107.766 7.31733 107.936 6.848C108.118 6.37867 108.368 5.97333 108.688 5.632C109.008 5.29067 109.387 5.01867 109.824 4.816C110.262 4.61333 110.747 4.512 111.28 4.512C111.728 4.512 112.134 4.592 112.496 4.752C112.87 4.90133 113.184 5.11467 113.44 5.392C113.696 5.65867 113.894 5.984 114.032 6.368C114.182 6.74133 114.256 7.14667 114.256 7.584C114.256 7.808 114.176 7.92 114.016 7.92H109.456ZM112.384 7.36C112.534 7.36 112.619 7.30667 112.64 7.2C112.662 7.09333 112.672 6.96533 112.672 6.816C112.672 6.592 112.635 6.37867 112.56 6.176C112.496 5.96267 112.4 5.776 112.272 5.616C112.144 5.456 111.99 5.328 111.808 5.232C111.627 5.136 111.419 5.088 111.184 5.088C110.896 5.088 110.646 5.14133 110.432 5.248C110.23 5.344 110.054 5.47733 109.904 5.648C109.766 5.808 109.659 6 109.584 6.224C109.51 6.448 109.456 6.68267 109.424 6.928C109.403 7.056 109.392 7.16267 109.392 7.248C109.403 7.32267 109.43 7.36 109.472 7.36H112.384ZM116.917 3.872C116.917 3.41333 116.906 3.05067 116.885 2.784C116.864 2.50667 116.81 2.29333 116.725 2.144C116.64 1.99467 116.506 1.89333 116.325 1.84C116.154 1.78667 115.914 1.744 115.605 1.712C115.552 1.712 115.509 1.68533 115.477 1.632C115.456 1.57867 115.44 1.52533 115.429 1.472C115.429 1.41867 115.44 1.36533 115.461 1.312C115.493 1.25867 115.541 1.232 115.605 1.232C115.925 1.21067 116.309 1.17867 116.757 1.136C117.216 1.09333 117.642 1.01333 118.037 0.896C118.186 0.853333 118.282 0.864 118.325 0.927999C118.378 0.981333 118.41 1.04 118.421 1.104V10.064C118.421 10.3307 118.426 10.5547 118.437 10.736C118.448 10.9173 118.485 11.0667 118.549 11.184C118.624 11.3013 118.736 11.392 118.885 11.456C119.045 11.52 119.264 11.568 119.541 11.6C119.605 11.6107 119.653 11.6427 119.685 11.696C119.717 11.7387 119.733 11.792 119.733 11.856C119.733 11.9093 119.717 11.9573 119.685 12C119.653 12.0533 119.605 12.08 119.541 12.08C119.285 12.08 118.997 12.0587 118.677 12.016C118.357 11.984 118.037 11.968 117.717 11.968C117.376 11.968 117.04 11.984 116.709 12.016C116.378 12.0587 116.042 12.08 115.701 12.08C115.648 12.08 115.605 12.0533 115.573 12C115.541 11.9573 115.525 11.9093 115.525 11.856C115.525 11.792 115.541 11.7387 115.573 11.696C115.605 11.6427 115.653 11.6107 115.717 11.6C116.016 11.568 116.245 11.52 116.405 11.456C116.576 11.392 116.698 11.3067 116.773 11.2C116.848 11.0827 116.89 10.944 116.901 10.784C116.912 10.6133 116.917 10.4053 116.917 10.16V3.872ZM125.114 8.688C125.114 8.57067 125.109 8.50133 125.098 8.48C125.088 8.448 125.061 8.432 125.018 8.432C124.144 8.50667 123.493 8.69333 123.066 8.992C122.65 9.28 122.442 9.65333 122.442 10.112C122.442 10.432 122.522 10.704 122.682 10.928C122.842 11.1413 123.109 11.248 123.482 11.248C123.728 11.248 123.984 11.2 124.25 11.104C124.528 11.008 124.773 10.8693 124.986 10.688C125.072 10.6027 125.114 10.5173 125.114 10.432V8.688ZM126.618 10.272C126.618 10.6453 126.65 10.9067 126.714 11.056C126.789 11.2053 126.928 11.28 127.13 11.28C127.248 11.28 127.344 11.2693 127.418 11.248C127.493 11.216 127.6 11.1573 127.738 11.072C127.77 11.0507 127.802 11.0507 127.834 11.072C127.877 11.0933 127.909 11.1253 127.93 11.168C127.962 11.2 127.984 11.2427 127.994 11.296C128.005 11.3387 127.994 11.376 127.962 11.408C127.546 11.9093 127.056 12.16 126.49 12.16C126.181 12.16 125.914 12.08 125.69 11.92C125.477 11.7493 125.317 11.552 125.21 11.328C125.189 11.2747 125.157 11.2693 125.114 11.312C124.837 11.5573 124.512 11.76 124.138 11.92C123.776 12.08 123.317 12.16 122.762 12.16C122.154 12.16 121.685 12 121.354 11.68C121.024 11.3493 120.858 10.8853 120.858 10.288C120.858 9.52 121.216 8.93333 121.93 8.528C122.645 8.112 123.685 7.904 125.05 7.904C125.072 7.904 125.088 7.87733 125.098 7.824C125.109 7.77067 125.114 7.648 125.114 7.456V7.024C125.114 6.75733 125.093 6.50667 125.05 6.272C125.008 6.03733 124.933 5.83467 124.826 5.664C124.73 5.48267 124.592 5.344 124.41 5.248C124.229 5.14133 124.005 5.088 123.738 5.088C123.344 5.088 123.024 5.168 122.778 5.328C122.533 5.47733 122.41 5.67467 122.41 5.92C122.41 6.03733 122.448 6.15467 122.522 6.272C122.597 6.37867 122.634 6.49067 122.634 6.608C122.634 6.75733 122.56 6.90133 122.41 7.04C122.261 7.17867 122.08 7.248 121.866 7.248C121.578 7.248 121.37 7.17333 121.242 7.024C121.125 6.864 121.066 6.672 121.066 6.448C121.066 6.18133 121.141 5.93067 121.29 5.696C121.44 5.45067 121.642 5.24267 121.898 5.072C122.154 4.90133 122.453 4.768 122.794 4.672C123.136 4.56533 123.493 4.512 123.866 4.512C124.72 4.512 125.392 4.70933 125.882 5.104C126.373 5.49867 126.618 6.15467 126.618 7.072V10.272ZM131.358 10.064C131.358 10.3307 131.363 10.5547 131.374 10.736C131.384 10.9173 131.411 11.0667 131.454 11.184C131.507 11.3013 131.587 11.392 131.694 11.456C131.811 11.52 131.971 11.568 132.174 11.6C132.238 11.6107 132.286 11.6427 132.318 11.696C132.35 11.7387 132.366 11.792 132.366 11.856C132.366 11.9093 132.35 11.9573 132.318 12C132.286 12.0533 132.238 12.08 132.174 12.08C132.067 12.08 131.864 12.0587 131.566 12.016C131.278 11.984 130.974 11.968 130.654 11.968C130.312 11.968 129.982 11.984 129.662 12.016C129.342 12.0587 129.043 12.08 128.766 12.08C128.712 12.08 128.67 12.0533 128.638 12C128.606 11.9573 128.59 11.9093 128.59 11.856C128.59 11.792 128.606 11.7387 128.638 11.696C128.67 11.6427 128.718 11.6107 128.782 11.6C129.048 11.568 129.251 11.5253 129.39 11.472C129.539 11.4187 129.646 11.3387 129.71 11.232C129.784 11.1253 129.827 10.9867 129.838 10.816C129.848 10.6453 129.854 10.4267 129.854 10.16V8.144C129.854 7.62133 129.848 7.18933 129.838 6.848C129.827 6.496 129.79 6.21867 129.726 6.016C129.662 5.81333 129.56 5.67467 129.422 5.6C129.283 5.51467 129.086 5.472 128.83 5.472C128.766 5.472 128.712 5.45067 128.67 5.408C128.638 5.36533 128.622 5.31733 128.622 5.264C128.622 5.2 128.638 5.14667 128.67 5.104C128.712 5.06133 128.766 5.04 128.83 5.04C129.032 5.04 129.326 5.008 129.71 4.944C130.104 4.88 130.504 4.78933 130.91 4.672C131.059 4.62933 131.171 4.66133 131.246 4.768C131.32 4.864 131.358 4.976 131.358 5.104V5.744C131.358 5.76533 131.363 5.78133 131.374 5.792C131.395 5.792 131.411 5.78133 131.422 5.76C131.496 5.64267 131.598 5.51467 131.726 5.376C131.864 5.22667 132.024 5.088 132.206 4.96C132.398 4.832 132.611 4.72533 132.846 4.64C133.08 4.55467 133.342 4.512 133.63 4.512C134.43 4.512 135.054 4.736 135.502 5.184C135.96 5.62133 136.19 6.336 136.19 7.328V10.064C136.19 10.352 136.195 10.5867 136.206 10.768C136.227 10.9493 136.264 11.0987 136.318 11.216C136.382 11.3227 136.472 11.408 136.59 11.472C136.718 11.5253 136.894 11.568 137.118 11.6C137.182 11.6107 137.23 11.6427 137.262 11.696C137.294 11.7387 137.31 11.792 137.31 11.856C137.31 11.9093 137.294 11.9573 137.262 12C137.23 12.0533 137.182 12.08 137.118 12.08C136.979 12.08 136.75 12.0587 136.43 12.016C136.12 11.984 135.806 11.968 135.486 11.968C135.144 11.968 134.819 11.984 134.51 12.016C134.2 12.0587 133.944 12.08 133.742 12.08C133.688 12.08 133.646 12.0533 133.614 12C133.582 11.9573 133.566 11.9093 133.566 11.856C133.566 11.792 133.582 11.7387 133.614 11.696C133.646 11.6427 133.694 11.6107 133.758 11.6C133.992 11.568 134.168 11.52 134.286 11.456C134.414 11.392 134.504 11.3067 134.558 11.2C134.622 11.0827 134.659 10.944 134.67 10.784C134.68 10.6133 134.686 10.4053 134.686 10.16V7.728C134.686 7.46133 134.675 7.19467 134.654 6.928C134.632 6.66133 134.574 6.42133 134.478 6.208C134.382 5.99467 134.243 5.81867 134.062 5.68C133.88 5.54133 133.63 5.472 133.31 5.472C132.99 5.472 132.707 5.52533 132.462 5.632C132.227 5.728 132.024 5.86133 131.854 6.032C131.694 6.20267 131.571 6.40533 131.486 6.64C131.4 6.864 131.358 7.104 131.358 7.36V10.064ZM140.924 13.392C140.924 13.6267 140.881 13.8933 140.796 14.192C140.711 14.5013 140.567 14.7893 140.364 15.056C140.172 15.3227 139.911 15.5467 139.58 15.728C139.26 15.9093 138.86 16 138.38 16C138.103 16 137.857 15.9627 137.644 15.888C137.431 15.824 137.249 15.7387 137.1 15.632C136.951 15.536 136.839 15.424 136.764 15.296C136.679 15.168 136.636 15.04 136.636 14.912C136.636 14.6773 136.711 14.4747 136.86 14.304C136.999 14.1333 137.185 14.048 137.42 14.048C137.644 14.048 137.82 14.1013 137.948 14.208C138.087 14.3253 138.156 14.4693 138.156 14.64C138.156 14.768 138.124 14.8693 138.06 14.944C137.996 15.0187 137.964 15.0987 137.964 15.184C137.964 15.2587 137.98 15.328 138.012 15.392C138.055 15.456 138.199 15.488 138.444 15.488C138.679 15.488 138.86 15.44 138.988 15.344C139.127 15.2587 139.228 15.1253 139.292 14.944C139.356 14.7627 139.393 14.5387 139.404 14.272C139.415 14.016 139.42 13.7173 139.42 13.376V7.568C139.42 7.10933 139.409 6.752 139.388 6.496C139.367 6.22933 139.313 6.032 139.228 5.904C139.153 5.76533 139.031 5.67467 138.86 5.632C138.7 5.58933 138.476 5.552 138.188 5.52C138.135 5.52 138.092 5.49333 138.06 5.44C138.039 5.38667 138.023 5.33333 138.012 5.28C138.012 5.22667 138.023 5.17333 138.044 5.12C138.076 5.06667 138.124 5.04 138.188 5.04C138.433 5.01867 138.743 4.98133 139.116 4.928C139.489 4.864 139.857 4.78933 140.22 4.704C140.295 4.68267 140.375 4.66133 140.46 4.64C140.545 4.61867 140.609 4.608 140.652 4.608C140.748 4.608 140.817 4.64533 140.86 4.72C140.903 4.79467 140.924 4.85867 140.924 4.912V13.392ZM139.98 2.96C139.713 2.96 139.484 2.88 139.292 2.72C139.1 2.54933 139.004 2.34133 139.004 2.096C139.004 1.85067 139.089 1.64267 139.26 1.472C139.441 1.30133 139.665 1.216 139.932 1.216C140.209 1.216 140.428 1.30133 140.588 1.472C140.759 1.64267 140.844 1.85067 140.844 2.096C140.844 2.33067 140.759 2.53333 140.588 2.704C140.428 2.87467 140.225 2.96 139.98 2.96ZM147.438 8.688C147.438 8.57067 147.433 8.50133 147.422 8.48C147.412 8.448 147.385 8.432 147.342 8.432C146.468 8.50667 145.817 8.69333 145.39 8.992C144.974 9.28 144.766 9.65333 144.766 10.112C144.766 10.432 144.846 10.704 145.006 10.928C145.166 11.1413 145.433 11.248 145.806 11.248C146.052 11.248 146.308 11.2 146.574 11.104C146.852 11.008 147.097 10.8693 147.31 10.688C147.396 10.6027 147.438 10.5173 147.438 10.432V8.688ZM148.942 10.272C148.942 10.6453 148.974 10.9067 149.038 11.056C149.113 11.2053 149.252 11.28 149.454 11.28C149.572 11.28 149.668 11.2693 149.742 11.248C149.817 11.216 149.924 11.1573 150.062 11.072C150.094 11.0507 150.126 11.0507 150.158 11.072C150.201 11.0933 150.233 11.1253 150.254 11.168C150.286 11.2 150.308 11.2427 150.318 11.296C150.329 11.3387 150.318 11.376 150.286 11.408C149.87 11.9093 149.38 12.16 148.814 12.16C148.505 12.16 148.238 12.08 148.014 11.92C147.801 11.7493 147.641 11.552 147.534 11.328C147.513 11.2747 147.481 11.2693 147.438 11.312C147.161 11.5573 146.836 11.76 146.462 11.92C146.1 12.08 145.641 12.16 145.086 12.16C144.478 12.16 144.009 12 143.678 11.68C143.348 11.3493 143.182 10.8853 143.182 10.288C143.182 9.52 143.54 8.93333 144.254 8.528C144.969 8.112 146.009 7.904 147.374 7.904C147.396 7.904 147.412 7.87733 147.422 7.824C147.433 7.77067 147.438 7.648 147.438 7.456V7.024C147.438 6.75733 147.417 6.50667 147.374 6.272C147.332 6.03733 147.257 5.83467 147.15 5.664C147.054 5.48267 146.916 5.344 146.734 5.248C146.553 5.14133 146.329 5.088 146.062 5.088C145.668 5.088 145.348 5.168 145.102 5.328C144.857 5.47733 144.734 5.67467 144.734 5.92C144.734 6.03733 144.772 6.15467 144.846 6.272C144.921 6.37867 144.958 6.49067 144.958 6.608C144.958 6.75733 144.884 6.90133 144.734 7.04C144.585 7.17867 144.404 7.248 144.19 7.248C143.902 7.248 143.694 7.17333 143.566 7.024C143.449 6.864 143.39 6.672 143.39 6.448C143.39 6.18133 143.465 5.93067 143.614 5.696C143.764 5.45067 143.966 5.24267 144.222 5.072C144.478 4.90133 144.777 4.768 145.118 4.672C145.46 4.56533 145.817 4.512 146.19 4.512C147.044 4.512 147.716 4.70933 148.206 5.104C148.697 5.49867 148.942 6.15467 148.942 7.072V10.272ZM157.037 3.2C157.037 2.88 157.01 2.62933 156.957 2.448C156.914 2.26667 156.834 2.128 156.717 2.032C156.61 1.92533 156.466 1.856 156.285 1.824C156.104 1.78133 155.874 1.74933 155.597 1.728C155.533 1.728 155.48 1.70133 155.437 1.648C155.405 1.584 155.389 1.52 155.389 1.456C155.389 1.392 155.405 1.33333 155.437 1.28C155.48 1.22667 155.533 1.2 155.597 1.2C155.693 1.2 155.837 1.2 156.029 1.2C156.232 1.2 156.456 1.20533 156.701 1.216C156.946 1.216 157.197 1.22133 157.453 1.232C157.72 1.232 157.96 1.24267 158.173 1.264C158.386 1.27467 158.562 1.296 158.701 1.328C158.85 1.34933 158.936 1.38133 158.957 1.424L162.205 9.056C162.226 9.088 162.248 9.104 162.269 9.104C162.301 9.104 162.328 9.088 162.349 9.056L165.549 1.424C165.56 1.38133 165.693 1.34933 165.949 1.328C166.216 1.296 166.52 1.27467 166.861 1.264C167.213 1.24267 167.565 1.22667 167.917 1.216C168.28 1.20533 168.568 1.2 168.781 1.2C168.845 1.2 168.888 1.22667 168.909 1.28C168.941 1.33333 168.957 1.392 168.957 1.456C168.957 1.52 168.941 1.57867 168.909 1.632C168.877 1.68533 168.834 1.71733 168.781 1.728C168.418 1.792 168.136 1.85067 167.933 1.904C167.73 1.95733 167.581 2.05867 167.485 2.208C167.389 2.34667 167.33 2.55467 167.309 2.832C167.288 3.10933 167.277 3.504 167.277 4.016V9.92C167.277 10.272 167.298 10.5493 167.341 10.752C167.384 10.944 167.458 11.0933 167.565 11.2C167.682 11.3067 167.842 11.3867 168.045 11.44C168.248 11.4827 168.509 11.52 168.829 11.552C168.893 11.5627 168.941 11.6 168.973 11.664C169.016 11.7173 169.037 11.776 169.037 11.84C169.037 11.904 169.016 11.9627 168.973 12.016C168.941 12.0693 168.888 12.096 168.813 12.096C168.386 12.096 167.976 12.0747 167.581 12.032C167.197 11.9893 166.813 11.968 166.429 11.968C166.024 11.968 165.602 11.9893 165.165 12.032C164.738 12.0747 164.349 12.096 163.997 12.096C163.933 12.096 163.885 12.0693 163.853 12.016C163.821 11.9627 163.805 11.904 163.805 11.84C163.805 11.776 163.821 11.7173 163.853 11.664C163.885 11.6 163.933 11.5627 163.997 11.552C164.328 11.52 164.589 11.4827 164.781 11.44C164.984 11.3867 165.138 11.3067 165.245 11.2C165.362 11.0933 165.437 10.944 165.469 10.752C165.512 10.5493 165.533 10.272 165.533 9.92V3.984C165.533 3.90933 165.49 3.87733 165.405 3.888C165.32 3.888 165.266 3.92 165.245 3.984L162.941 9.408C162.781 9.78133 162.621 10.192 162.461 10.64C162.312 11.0773 162.162 11.52 162.013 11.968C162.002 12 161.97 12.0213 161.917 12.032C161.874 12.0533 161.826 12.064 161.773 12.064C161.72 12.064 161.666 12.0533 161.613 12.032C161.57 12.0213 161.544 12 161.533 11.968L158.013 3.904C157.992 3.85067 157.944 3.81867 157.869 3.808C157.805 3.79733 157.773 3.83467 157.773 3.92V9.872C157.773 10.256 157.805 10.5547 157.869 10.768C157.933 10.9813 158.024 11.1413 158.141 11.248C158.269 11.3547 158.424 11.4293 158.605 11.472C158.786 11.504 159 11.536 159.245 11.568C159.298 11.5787 159.336 11.6107 159.357 11.664C159.389 11.7173 159.405 11.776 159.405 11.84C159.405 11.904 159.389 11.9627 159.357 12.016C159.336 12.0693 159.293 12.096 159.229 12.096C158.994 12.096 158.733 12.0747 158.445 12.032C158.168 11.9893 157.837 11.968 157.453 11.968C157.048 11.968 156.685 11.9893 156.365 12.032C156.056 12.0747 155.794 12.096 155.581 12.096C155.528 12.096 155.485 12.0693 155.453 12.016C155.421 11.9627 155.4 11.904 155.389 11.84C155.389 11.776 155.405 11.7173 155.437 11.664C155.469 11.6107 155.517 11.5787 155.581 11.568C155.858 11.536 156.088 11.504 156.269 11.472C156.461 11.4293 156.61 11.3547 156.717 11.248C156.834 11.1413 156.914 10.9813 156.957 10.768C157.01 10.5547 157.037 10.256 157.037 9.872V3.2ZM176.976 9.216C176.976 9.65333 176.981 10.0107 176.992 10.288C177.013 10.5547 177.061 10.768 177.136 10.928C177.221 11.0773 177.344 11.184 177.504 11.248C177.664 11.3013 177.888 11.328 178.176 11.328C178.218 11.328 178.25 11.3547 178.272 11.408C178.304 11.4507 178.32 11.504 178.32 11.568C178.32 11.6213 178.309 11.6747 178.288 11.728C178.266 11.7813 178.229 11.808 178.176 11.808C178.09 11.808 178.016 11.8133 177.952 11.824C177.898 11.824 177.84 11.8293 177.776 11.84C177.722 11.84 177.658 11.8453 177.584 11.856C177.52 11.8667 177.434 11.8773 177.328 11.888C177.242 11.8987 177.12 11.92 176.96 11.952C176.81 11.984 176.656 12.016 176.496 12.048C176.336 12.08 176.186 12.1067 176.048 12.128C175.909 12.1493 175.818 12.16 175.776 12.16C175.584 12.16 175.488 11.8613 175.488 11.264C175.488 11.2427 175.477 11.232 175.456 11.232C175.434 11.2213 175.413 11.2267 175.392 11.248C174.997 11.5893 174.597 11.8293 174.192 11.968C173.797 12.096 173.413 12.16 173.04 12.16C172.549 12.16 172.144 12.1013 171.824 11.984C171.504 11.856 171.253 11.6747 171.072 11.44C170.89 11.2053 170.762 10.9173 170.688 10.576C170.613 10.224 170.576 9.82933 170.576 9.392V7.584C170.576 7.12533 170.565 6.768 170.544 6.512C170.522 6.256 170.474 6.064 170.4 5.936C170.325 5.808 170.213 5.72267 170.064 5.68C169.914 5.63733 169.712 5.6 169.456 5.568C169.402 5.568 169.36 5.54133 169.328 5.488C169.306 5.43467 169.29 5.38133 169.28 5.328C169.28 5.27467 169.29 5.22133 169.312 5.168C169.344 5.11467 169.392 5.088 169.456 5.088C169.562 5.07733 169.701 5.06133 169.872 5.04C170.053 5.01867 170.245 4.98667 170.448 4.944C170.65 4.90133 170.858 4.85867 171.072 4.816C171.296 4.76267 171.504 4.70933 171.696 4.656C171.845 4.61333 171.946 4.64 172 4.736C172.053 4.82133 172.08 4.896 172.08 4.96V8.768C172.08 9.19467 172.096 9.55733 172.128 9.856C172.17 10.1547 172.24 10.4 172.336 10.592C172.432 10.784 172.565 10.9227 172.736 11.008C172.906 11.0933 173.12 11.136 173.376 11.136C173.738 11.136 174.117 11.072 174.512 10.944C174.906 10.816 175.205 10.6613 175.408 10.48C175.44 10.448 175.456 10.3893 175.456 10.304C175.466 10.2187 175.472 10.1547 175.472 10.112V7.584C175.472 7.12533 175.466 6.768 175.456 6.512C175.445 6.256 175.408 6.064 175.344 5.936C175.28 5.808 175.178 5.72267 175.04 5.68C174.912 5.63733 174.72 5.6 174.464 5.568C174.41 5.55733 174.368 5.53067 174.336 5.488C174.314 5.43467 174.298 5.38133 174.288 5.328C174.288 5.264 174.298 5.21067 174.32 5.168C174.352 5.11467 174.4 5.088 174.464 5.088C174.848 5.06667 175.2 5.01867 175.52 4.944C175.84 4.86933 176.197 4.77333 176.592 4.656C176.741 4.61333 176.842 4.64 176.896 4.736C176.949 4.82133 176.976 4.896 176.976 4.96V9.216ZM181.772 10.064C181.772 10.3307 181.778 10.5547 181.788 10.736C181.81 10.9173 181.868 11.0667 181.964 11.184C182.06 11.3013 182.21 11.392 182.412 11.456C182.615 11.52 182.908 11.568 183.292 11.6C183.356 11.6107 183.404 11.6427 183.436 11.696C183.468 11.7387 183.484 11.792 183.484 11.856C183.484 11.9093 183.468 11.9573 183.436 12C183.404 12.0533 183.356 12.08 183.292 12.08C182.834 12.08 182.428 12.0587 182.076 12.016C181.724 11.984 181.388 11.968 181.068 11.968C180.727 11.968 180.386 11.984 180.044 12.016C179.714 12.0587 179.378 12.08 179.036 12.08C178.983 12.08 178.94 12.0533 178.908 12C178.876 11.9573 178.86 11.9093 178.86 11.856C178.86 11.792 178.876 11.7387 178.908 11.696C178.94 11.6427 178.988 11.6107 179.052 11.6C179.351 11.568 179.58 11.52 179.74 11.456C179.911 11.392 180.034 11.3067 180.108 11.2C180.183 11.0827 180.226 10.944 180.236 10.784C180.258 10.6133 180.268 10.4053 180.268 10.16V7.824C180.268 7.30133 180.258 6.89067 180.236 6.592C180.215 6.28267 180.162 6.048 180.076 5.888C180.002 5.71733 179.879 5.60533 179.708 5.552C179.538 5.49867 179.303 5.46133 179.004 5.44C178.951 5.44 178.908 5.41333 178.876 5.36C178.855 5.30667 178.844 5.25333 178.844 5.2C178.844 5.14667 178.855 5.09333 178.876 5.04C178.908 4.98667 178.956 4.96 179.02 4.96C179.234 4.93867 179.527 4.91733 179.9 4.896C180.284 4.864 180.674 4.79467 181.068 4.688C181.218 4.64533 181.34 4.64 181.436 4.672C181.532 4.704 181.575 4.79467 181.564 4.944L181.532 5.968C181.532 5.98933 181.538 6.00533 181.548 6.016C181.559 6.016 181.575 6.00533 181.596 5.984C181.82 5.536 182.092 5.17867 182.412 4.912C182.743 4.64533 183.18 4.512 183.724 4.512C184.172 4.512 184.503 4.62933 184.716 4.864C184.93 5.088 185.036 5.36533 185.036 5.696C185.036 5.87733 184.967 6.04267 184.828 6.192C184.69 6.34133 184.492 6.416 184.236 6.416C183.991 6.416 183.82 6.35733 183.724 6.24C183.628 6.12267 183.58 5.99467 183.58 5.856C183.58 5.70667 183.548 5.58933 183.484 5.504C183.431 5.41867 183.308 5.376 183.116 5.376C182.914 5.376 182.727 5.44533 182.556 5.584C182.396 5.712 182.258 5.86667 182.14 6.048C182.023 6.22933 181.932 6.416 181.868 6.608C181.804 6.8 181.772 6.94933 181.772 7.056V10.064ZM190.019 8.688C190.019 8.57067 190.014 8.50133 190.003 8.48C189.993 8.448 189.966 8.432 189.923 8.432C189.049 8.50667 188.398 8.69333 187.971 8.992C187.555 9.28 187.347 9.65333 187.347 10.112C187.347 10.432 187.427 10.704 187.587 10.928C187.747 11.1413 188.014 11.248 188.387 11.248C188.633 11.248 188.889 11.2 189.155 11.104C189.433 11.008 189.678 10.8693 189.891 10.688C189.977 10.6027 190.019 10.5173 190.019 10.432V8.688ZM191.523 10.272C191.523 10.6453 191.555 10.9067 191.619 11.056C191.694 11.2053 191.833 11.28 192.035 11.28C192.153 11.28 192.249 11.2693 192.323 11.248C192.398 11.216 192.505 11.1573 192.643 11.072C192.675 11.0507 192.707 11.0507 192.739 11.072C192.782 11.0933 192.814 11.1253 192.835 11.168C192.867 11.2 192.889 11.2427 192.899 11.296C192.91 11.3387 192.899 11.376 192.867 11.408C192.451 11.9093 191.961 12.16 191.395 12.16C191.086 12.16 190.819 12.08 190.595 11.92C190.382 11.7493 190.222 11.552 190.115 11.328C190.094 11.2747 190.062 11.2693 190.019 11.312C189.742 11.5573 189.417 11.76 189.043 11.92C188.681 12.08 188.222 12.16 187.667 12.16C187.059 12.16 186.59 12 186.259 11.68C185.929 11.3493 185.763 10.8853 185.763 10.288C185.763 9.52 186.121 8.93333 186.835 8.528C187.55 8.112 188.59 7.904 189.955 7.904C189.977 7.904 189.993 7.87733 190.003 7.824C190.014 7.77067 190.019 7.648 190.019 7.456V7.024C190.019 6.75733 189.998 6.50667 189.955 6.272C189.913 6.03733 189.838 5.83467 189.731 5.664C189.635 5.48267 189.497 5.344 189.315 5.248C189.134 5.14133 188.91 5.088 188.643 5.088C188.249 5.088 187.929 5.168 187.683 5.328C187.438 5.47733 187.315 5.67467 187.315 5.92C187.315 6.03733 187.353 6.15467 187.427 6.272C187.502 6.37867 187.539 6.49067 187.539 6.608C187.539 6.75733 187.465 6.90133 187.315 7.04C187.166 7.17867 186.985 7.248 186.771 7.248C186.483 7.248 186.275 7.17333 186.147 7.024C186.03 6.864 185.971 6.672 185.971 6.448C185.971 6.18133 186.046 5.93067 186.195 5.696C186.345 5.45067 186.547 5.24267 186.803 5.072C187.059 4.90133 187.358 4.768 187.699 4.672C188.041 4.56533 188.398 4.512 188.771 4.512C189.625 4.512 190.297 4.70933 190.787 5.104C191.278 5.49867 191.523 6.15467 191.523 7.072V10.272ZM196.263 5.664C196.284 5.71733 196.311 5.71733 196.343 5.664C196.62 5.30133 196.961 5.01867 197.367 4.816C197.783 4.61333 198.193 4.512 198.599 4.512C199.505 4.512 200.156 4.76267 200.551 5.264C200.956 5.75467 201.159 6.4 201.159 7.2V10.16C201.159 10.4373 201.164 10.6613 201.175 10.832C201.196 11.0027 201.233 11.1413 201.287 11.248C201.351 11.344 201.447 11.4187 201.575 11.472C201.703 11.5147 201.879 11.5573 202.103 11.6C202.167 11.6107 202.215 11.6427 202.247 11.696C202.279 11.7493 202.295 11.8027 202.295 11.856C202.295 11.9093 202.279 11.9573 202.247 12C202.215 12.0533 202.172 12.08 202.119 12.08C201.969 12.08 201.74 12.0587 201.431 12.016C201.132 11.984 200.823 11.968 200.503 11.968C200.161 11.968 199.825 11.984 199.495 12.016C199.164 12.0587 198.881 12.08 198.647 12.08C198.583 12.08 198.535 12.0533 198.503 12C198.471 11.9573 198.455 11.9093 198.455 11.856C198.455 11.792 198.471 11.7387 198.503 11.696C198.535 11.6427 198.588 11.6107 198.663 11.6C198.908 11.568 199.095 11.5253 199.223 11.472C199.361 11.4187 199.457 11.3387 199.511 11.232C199.575 11.1253 199.612 10.9867 199.623 10.816C199.644 10.6453 199.655 10.4267 199.655 10.16V7.744C199.655 7.47733 199.633 7.21067 199.591 6.944C199.559 6.67733 199.489 6.43733 199.383 6.224C199.287 6 199.143 5.81867 198.951 5.68C198.759 5.54133 198.503 5.472 198.183 5.472C197.841 5.472 197.548 5.536 197.303 5.664C197.068 5.792 196.871 5.94667 196.711 6.128C196.561 6.30933 196.449 6.50133 196.375 6.704C196.3 6.90667 196.263 7.08267 196.263 7.232V10.064C196.263 10.352 196.268 10.592 196.279 10.784C196.289 10.9653 196.321 11.1093 196.375 11.216C196.428 11.3227 196.508 11.408 196.615 11.472C196.732 11.5253 196.892 11.568 197.095 11.6C197.169 11.6107 197.223 11.6427 197.255 11.696C197.287 11.7493 197.303 11.8027 197.303 11.856C197.303 11.9093 197.287 11.9573 197.255 12C197.223 12.0533 197.175 12.08 197.111 12.08C196.972 12.08 196.753 12.0587 196.455 12.016C196.167 11.984 195.863 11.968 195.543 11.968C195.201 11.968 194.876 11.984 194.567 12.016C194.257 12.0587 193.98 12.08 193.735 12.08C193.671 12.08 193.623 12.0533 193.591 12C193.559 11.9573 193.543 11.9093 193.543 11.856C193.543 11.792 193.559 11.7387 193.591 11.696C193.623 11.6427 193.676 11.6107 193.751 11.6C193.996 11.568 194.183 11.5253 194.311 11.472C194.449 11.4187 194.551 11.3387 194.615 11.232C194.679 11.1253 194.716 10.9867 194.727 10.816C194.748 10.6453 194.759 10.4267 194.759 10.16V3.872C194.759 3.41333 194.748 3.05067 194.727 2.784C194.705 2.50667 194.652 2.29333 194.567 2.144C194.481 1.99467 194.353 1.89333 194.183 1.84C194.012 1.78667 193.777 1.744 193.479 1.712C193.425 1.712 193.383 1.68533 193.351 1.632C193.329 1.57867 193.313 1.52533 193.303 1.472C193.303 1.41867 193.313 1.36533 193.335 1.312C193.367 1.25867 193.415 1.232 193.479 1.232C193.788 1.21067 194.167 1.17867 194.615 1.136C195.063 1.09333 195.484 1.01333 195.879 0.896C196.028 0.853333 196.124 0.864 196.167 0.927999C196.22 0.981333 196.252 1.04 196.263 1.104V5.664Z" fill="#08F2F1"/>
</g>
<defs>
<filter id="filter0_d" x="0.948242" y="0.85437" width="205.346" height="23.1456" filterUnits="userSpaceOnUse" color-interpolation-filters="sRGB">
<feFlood flood-opacity="0" result="BackgroundImageFix"/>
<feColorMatrix in="SourceAlpha" type="matrix" values="0 0 0 0 0 0 0 0 0 0 0 0 0 0 0 0 0 0 127 0"/>
<feOffset dy="4"/>
<feGaussianBlur stdDeviation="2"/>
<feColorMatrix type="matrix" values="0 0 0 0 1 0 0 0 0 1 0 0 0 0 1 0 0 0 0.5 0"/>
<feBlend mode="normal" in2="BackgroundImageFix" result="effect1_dropShadow"/>
<feBlend mode="normal" in="SourceGraphic" in2="effect1_dropShadow" result="shape"/>
</filter>
</defs>
</svg>
