<svg width="217" height="40" viewBox="0 0 217 40" fill="none" xmlns="http://www.w3.org/2000/svg">
<g filter="url(#filter0_d)">
<path d="M27.9644 24.348V30H5.39242V25.536L18.1004 10.452H5.71642V4.8H27.4244V9.264L14.7164 24.348H27.9644ZM41.0186 10.164C44.2586 10.164 46.7306 10.908 48.4346 12.396C50.1386 13.86 50.9906 16.116 50.9906 19.164V30H44.6186V27.48C43.6346 29.376 41.7146 30.324 38.8586 30.324C37.3466 30.324 36.0386 30.06 34.9346 29.532C33.8306 29.004 32.9906 28.296 32.4146 27.408C31.8626 26.496 31.5866 25.464 31.5866 24.312C31.5866 22.464 32.2946 21.036 33.7106 20.028C35.1266 18.996 37.3106 18.48 40.2626 18.48H44.1506C44.0306 16.416 42.6506 15.384 40.0106 15.384C39.0746 15.384 38.1266 15.54 37.1666 15.852C36.2066 16.14 35.3906 16.548 34.7186 17.076L32.4146 12.432C33.4946 11.712 34.8026 11.16 36.3386 10.776C37.8986 10.368 39.4586 10.164 41.0186 10.164ZM40.7666 26.004C41.5586 26.004 42.2546 25.812 42.8546 25.428C43.4546 25.044 43.8866 24.48 44.1506 23.736V22.044H41.1986C39.2066 22.044 38.2106 22.704 38.2106 24.024C38.2106 24.624 38.4386 25.104 38.8946 25.464C39.3506 25.824 39.9746 26.004 40.7666 26.004ZM69.8161 10.164C72.2401 10.164 74.1841 10.884 75.6481 12.324C77.1361 13.764 77.8801 15.936 77.8801 18.84V30H71.0401V19.956C71.0401 17.292 69.9721 15.96 67.8361 15.96C66.6601 15.96 65.7121 16.344 64.9921 17.112C64.2961 17.88 63.9481 19.032 63.9481 20.568V30H57.1081V3.288H63.9481V12.288C64.6921 11.592 65.5681 11.064 66.5761 10.704C67.5841 10.344 68.6641 10.164 69.8161 10.164ZM83.9745 10.488H90.8145V30H83.9745V10.488ZM87.3945 8.328C86.1465 8.328 85.1385 7.98 84.3705 7.284C83.6025 6.588 83.2185 5.724 83.2185 4.692C83.2185 3.66 83.6025 2.796 84.3705 2.1C85.1385 1.404 86.1465 1.056 87.3945 1.056C88.6425 1.056 89.6505 1.392 90.4185 2.064C91.1865 2.712 91.5705 3.552 91.5705 4.584C91.5705 5.664 91.1865 6.564 90.4185 7.284C89.6505 7.98 88.6425 8.328 87.3945 8.328ZM103.576 12.828C104.272 11.94 105.172 11.28 106.276 10.848C107.404 10.392 108.688 10.164 110.128 10.164V16.32C109.504 16.248 108.988 16.212 108.58 16.212C107.116 16.212 105.964 16.608 105.124 17.4C104.308 18.192 103.9 19.404 103.9 21.036V30H97.0597V10.488H103.576V12.828ZM122.926 10.164C126.166 10.164 128.638 10.908 130.342 12.396C132.046 13.86 132.898 16.116 132.898 19.164V30H126.526V27.48C125.542 29.376 123.622 30.324 120.766 30.324C119.254 30.324 117.946 30.06 116.842 29.532C115.738 29.004 114.898 28.296 114.322 27.408C113.77 26.496 113.494 25.464 113.494 24.312C113.494 22.464 114.202 21.036 115.618 20.028C117.034 18.996 119.218 18.48 122.17 18.48H126.058C125.938 16.416 124.558 15.384 121.918 15.384C120.982 15.384 120.034 15.54 119.074 15.852C118.114 16.14 117.298 16.548 116.626 17.076L114.322 12.432C115.402 11.712 116.71 11.16 118.246 10.776C119.806 10.368 121.366 10.164 122.926 10.164ZM122.674 26.004C123.466 26.004 124.162 25.812 124.762 25.428C125.362 25.044 125.794 24.48 126.058 23.736V22.044H123.106C121.114 22.044 120.118 22.704 120.118 24.024C120.118 24.624 120.346 25.104 120.802 25.464C121.258 25.824 121.882 26.004 122.674 26.004ZM151.903 30.504C149.263 30.504 146.887 29.952 144.775 28.848C142.687 27.72 141.043 26.16 139.843 24.168C138.643 22.176 138.043 19.92 138.043 17.4C138.043 14.88 138.643 12.624 139.843 10.632C141.043 8.64 142.687 7.092 144.775 5.988C146.887 4.86 149.263 4.296 151.903 4.296C154.207 4.296 156.283 4.704 158.131 5.52C159.979 6.336 161.515 7.512 162.739 9.048L158.203 13.152C156.571 11.184 154.591 10.2 152.263 10.2C150.895 10.2 149.671 10.5 148.591 11.1C147.535 11.7 146.707 12.552 146.107 13.656C145.531 14.736 145.243 15.984 145.243 17.4C145.243 18.816 145.531 20.076 146.107 21.18C146.707 22.26 147.535 23.1 148.591 23.7C149.671 24.3 150.895 24.6 152.263 24.6C154.591 24.6 156.571 23.616 158.203 21.648L162.739 25.752C161.515 27.288 159.979 28.464 158.131 29.28C156.283 30.096 154.207 30.504 151.903 30.504ZM186.74 20.28C186.74 20.328 186.704 20.892 186.632 21.972H172.448C172.736 22.98 173.288 23.76 174.104 24.312C174.944 24.84 175.988 25.104 177.236 25.104C178.172 25.104 178.976 24.972 179.648 24.708C180.344 24.444 181.04 24.012 181.736 23.412L185.336 27.156C183.44 29.268 180.668 30.324 177.02 30.324C174.74 30.324 172.736 29.892 171.008 29.028C169.28 28.164 167.936 26.964 166.976 25.428C166.04 23.892 165.572 22.152 165.572 20.208C165.572 18.288 166.028 16.572 166.94 15.06C167.876 13.524 169.16 12.324 170.792 11.46C172.424 10.596 174.26 10.164 176.3 10.164C178.244 10.164 180.008 10.572 181.592 11.388C183.176 12.18 184.424 13.344 185.336 14.88C186.272 16.392 186.74 18.192 186.74 20.28ZM176.336 15.024C175.28 15.024 174.392 15.324 173.672 15.924C172.976 16.524 172.532 17.34 172.34 18.372H180.332C180.14 17.34 179.684 16.524 178.964 15.924C178.268 15.324 177.392 15.024 176.336 15.024ZM191.693 3.288H198.533V30H191.693V3.288ZM204.778 3.288H211.618V30H204.778V3.288Z" fill="black"/>
<path d="M27.9644 24.348H28.9644V23.348H27.9644V24.348ZM27.9644 30V31H28.9644V30H27.9644ZM5.39242 30H4.39242V31H5.39242V30ZM5.39242 25.536L4.62765 24.8917L4.39242 25.1709V25.536H5.39242ZM18.1004 10.452L18.8652 11.0963L20.2505 9.452H18.1004V10.452ZM5.71642 10.452H4.71642V11.452H5.71642V10.452ZM5.71642 4.8V3.8H4.71642V4.8H5.71642ZM27.4244 4.8H28.4244V3.8H27.4244V4.8ZM27.4244 9.264L28.1892 9.9083L28.4244 9.62909V9.264H27.4244ZM14.7164 24.348L13.9517 23.7037L12.5664 25.348H14.7164V24.348ZM26.9644 24.348V30H28.9644V24.348H26.9644ZM27.9644 29H5.39242V31H27.9644V29ZM6.39242 30V25.536H4.39242V30H6.39242ZM6.15719 26.1803L18.8652 11.0963L17.3357 9.80769L4.62765 24.8917L6.15719 26.1803ZM18.1004 9.452H5.71642V11.452H18.1004V9.452ZM6.71642 10.452V4.8H4.71642V10.452H6.71642ZM5.71642 5.8H27.4244V3.8H5.71642V5.8ZM26.4244 4.8V9.264H28.4244V4.8H26.4244ZM26.6597 8.61969L13.9517 23.7037L15.4812 24.9923L28.1892 9.9083L26.6597 8.61969ZM14.7164 25.348H27.9644V23.348H14.7164V25.348ZM48.4346 12.396L47.7769 13.1493L47.783 13.1545L48.4346 12.396ZM50.9906 30V31H51.9906V30H50.9906ZM44.6186 30H43.6186V31H44.6186V30ZM44.6186 27.48H45.6186L43.7311 27.0194L44.6186 27.48ZM34.9346 29.532L34.5032 30.4341L34.5032 30.4341L34.9346 29.532ZM32.4146 27.408L31.5591 27.9258L31.5672 27.9391L31.5757 27.9522L32.4146 27.408ZM33.7106 20.028L34.2906 20.8427L34.2996 20.8361L33.7106 20.028ZM44.1506 18.48V19.48H45.2105L45.149 18.422L44.1506 18.48ZM37.1666 15.852L37.454 16.8098L37.4649 16.8066L37.4757 16.803L37.1666 15.852ZM34.7186 17.076L33.8228 17.5204L34.3694 18.6221L35.3365 17.8623L34.7186 17.076ZM32.4146 12.432L31.8599 11.5999L31.1277 12.0881L31.5188 12.8764L32.4146 12.432ZM36.3386 10.776L36.5812 11.7462L36.5917 11.7435L36.3386 10.776ZM42.8546 25.428L43.3937 26.2703L43.3937 26.2703L42.8546 25.428ZM44.1506 23.736L45.0931 24.0704L45.1506 23.9082V23.736H44.1506ZM44.1506 22.044H45.1506V21.044H44.1506V22.044ZM38.8946 25.464L38.275 26.2489L38.275 26.2489L38.8946 25.464ZM41.0186 11.164C44.1199 11.164 46.3201 11.8771 47.7769 13.1492L49.0924 11.6428C47.1412 9.93889 44.3974 9.164 41.0186 9.164V11.164ZM47.783 13.1545C49.1945 14.3672 49.9906 16.2981 49.9906 19.164H51.9906C51.9906 15.9339 51.0828 13.3528 49.0863 11.6375L47.783 13.1545ZM49.9906 19.164V30H51.9906V19.164H49.9906ZM50.9906 29H44.6186V31H50.9906V29ZM45.6186 30V27.48H43.6186V30H45.6186ZM43.7311 27.0194C42.9773 28.4718 41.4873 29.324 38.8586 29.324V31.324C41.942 31.324 44.292 30.2802 45.5062 27.9406L43.7311 27.0194ZM38.8586 29.324C37.4616 29.324 36.3075 29.0801 35.3661 28.6299L34.5032 30.4341C35.7698 31.0399 37.2317 31.324 38.8586 31.324V29.324ZM35.3661 28.6299C34.4019 28.1687 33.7145 27.5744 33.2536 26.8638L31.5757 27.9522C32.2668 29.0176 33.2594 29.8393 34.5032 30.4341L35.3661 28.6299ZM33.2701 26.8902C32.8203 26.1469 32.5866 25.2967 32.5866 24.312H30.5866C30.5866 25.6313 30.905 26.8451 31.5591 27.9258L33.2701 26.8902ZM32.5866 24.312C32.5866 22.7635 33.1571 21.6495 34.2906 20.8427L33.1307 19.2133C31.4321 20.4225 30.5866 22.1645 30.5866 24.312H32.5866ZM34.2996 20.8361C35.4627 19.9885 37.3914 19.48 40.2626 19.48V17.48C37.2298 17.48 34.7906 18.0035 33.1217 19.2199L34.2996 20.8361ZM40.2626 19.48H44.1506V17.48H40.2626V19.48ZM45.149 18.422C45.0756 17.1603 44.5981 16.0852 43.6245 15.3572C42.6914 14.6594 41.4383 14.384 40.0106 14.384V16.384C41.223 16.384 41.9799 16.6246 42.4268 16.9588C42.8332 17.2628 43.1057 17.7357 43.1523 18.538L45.149 18.422ZM40.0106 14.384C38.9618 14.384 37.9096 14.5591 36.8576 14.901L37.4757 16.803C38.3437 16.5209 39.1875 16.384 40.0106 16.384V14.384ZM36.8793 14.8942C35.8197 15.212 34.8867 15.6722 34.1008 16.2897L35.3365 17.8623C35.8946 17.4238 36.5936 17.068 37.454 16.8098L36.8793 14.8942ZM35.6145 16.6316L33.3105 11.9876L31.5188 12.8764L33.8228 17.5204L35.6145 16.6316ZM32.9693 13.264C33.9356 12.6199 35.1328 12.1082 36.5812 11.7461L36.0961 9.80586C34.4725 10.2118 33.0537 10.8041 31.8599 11.5999L32.9693 13.264ZM36.5917 11.7435C38.0719 11.3563 39.5469 11.164 41.0186 11.164V9.164C39.3704 9.164 37.7254 9.37966 36.0856 9.80854L36.5917 11.7435ZM40.7666 27.004C41.7276 27.004 42.6151 26.7686 43.3937 26.2703L42.3156 24.5857C41.8942 24.8554 41.3897 25.004 40.7666 25.004V27.004ZM43.3937 26.2703C44.2012 25.7535 44.7633 24.9998 45.0931 24.0704L43.2082 23.4016C43.01 23.9602 42.7081 24.3345 42.3156 24.5857L43.3937 26.2703ZM45.1506 23.736V22.044H43.1506V23.736H45.1506ZM44.1506 21.044H41.1986V23.044H44.1506V21.044ZM41.1986 21.044C40.1239 21.044 39.1434 21.2163 38.4053 21.7054C37.5949 22.2424 37.2106 23.0701 37.2106 24.024H39.2106C39.2106 23.6579 39.3244 23.4956 39.51 23.3726C39.7679 23.2017 40.2814 23.044 41.1986 23.044V21.044ZM37.2106 24.024C37.2106 24.9184 37.5698 25.6921 38.275 26.2489L39.5143 24.6791C39.3075 24.5159 39.2106 24.3296 39.2106 24.024H37.2106ZM38.275 26.2489C38.962 26.7912 39.8308 27.004 40.7666 27.004V25.004C40.1185 25.004 39.7393 24.8568 39.5143 24.6791L38.275 26.2489ZM75.6481 12.324L74.9468 13.0369L74.9527 13.0426L75.6481 12.324ZM77.8801 30V31H78.8801V30H77.8801ZM71.0401 30H70.0401V31H71.0401V30ZM64.9921 17.112L64.2626 16.4281L64.2568 16.4342L64.2511 16.4405L64.9921 17.112ZM63.9481 30V31H64.9481V30H63.9481ZM57.1081 30H56.1081V31H57.1081V30ZM57.1081 3.288V2.288H56.1081V3.288H57.1081ZM63.9481 3.288H64.9481V2.288H63.9481V3.288ZM63.9481 12.288H62.9481V14.5928L64.6313 13.0183L63.9481 12.288ZM66.5761 10.704L66.2398 9.76226L66.2398 9.76226L66.5761 10.704ZM69.8161 11.164C72.0286 11.164 73.7032 11.8137 74.9469 13.0369L76.3493 11.6111C74.665 9.95431 72.4517 9.164 69.8161 9.164V11.164ZM74.9527 13.0426C76.1785 14.2289 76.8801 16.0958 76.8801 18.84H78.8801C78.8801 15.7762 78.0937 13.2991 76.3435 11.6054L74.9527 13.0426ZM76.8801 18.84V30H78.8801V18.84H76.8801ZM77.8801 29H71.0401V31H77.8801V29ZM72.0401 30V19.956H70.0401V30H72.0401ZM72.0401 19.956C72.0401 18.5168 71.756 17.2522 71.0193 16.3334C70.2488 15.3725 69.124 14.96 67.8361 14.96V16.96C68.6842 16.96 69.1614 17.2135 69.4589 17.5846C69.7903 17.9978 70.0401 18.7312 70.0401 19.956H72.0401ZM67.8361 14.96C66.4195 14.96 65.1948 15.4337 64.2626 16.4281L65.7216 17.7959C66.2294 17.2543 66.9007 16.96 67.8361 16.96V14.96ZM64.2511 16.4405C63.3237 17.4638 62.9481 18.9009 62.9481 20.568H64.9481C64.9481 19.1631 65.2685 18.2962 65.7331 17.7835L64.2511 16.4405ZM62.9481 20.568V30H64.9481V20.568H62.9481ZM63.9481 29H57.1081V31H63.9481V29ZM58.1081 30V3.288H56.1081V30H58.1081ZM57.1081 4.288H63.9481V2.288H57.1081V4.288ZM62.9481 3.288V12.288H64.9481V3.288H62.9481ZM64.6313 13.0183C65.2703 12.4204 66.0267 11.9621 66.9124 11.6457L66.2398 9.76226C65.1096 10.1659 64.1139 10.7635 63.265 11.5577L64.6313 13.0183ZM66.9124 11.6457C67.8045 11.3271 68.77 11.164 69.8161 11.164V9.164C68.5583 9.164 67.3637 9.36086 66.2398 9.76226L66.9124 11.6457ZM83.9745 10.488V9.488H82.9745V10.488H83.9745ZM90.8145 10.488H91.8145V9.488H90.8145V10.488ZM90.8145 30V31H91.8145V30H90.8145ZM83.9745 30H82.9745V31H83.9745V30ZM84.3705 7.284L85.042 6.54301L85.042 6.54301L84.3705 7.284ZM84.3705 2.1L85.042 2.84099L85.042 2.84099L84.3705 2.1ZM90.4185 2.064L89.76 2.81658L89.7668 2.82249L89.7736 2.82829L90.4185 2.064ZM90.4185 7.284L91.09 8.02499L91.0963 8.01931L91.1025 8.01354L90.4185 7.284ZM83.9745 11.488H90.8145V9.488H83.9745V11.488ZM89.8145 10.488V30H91.8145V10.488H89.8145ZM90.8145 29H83.9745V31H90.8145V29ZM84.9745 30V10.488H82.9745V30H84.9745ZM87.3945 7.328C86.3414 7.328 85.5901 7.03965 85.042 6.54301L83.699 8.02499C84.687 8.92034 85.9517 9.328 87.3945 9.328V7.328ZM85.042 6.54301C84.4822 6.03564 84.2185 5.44032 84.2185 4.692H82.2185C82.2185 6.00768 82.7229 7.14036 83.699 8.02499L85.042 6.54301ZM84.2185 4.692C84.2185 3.94368 84.4822 3.34836 85.042 2.84099L83.699 1.35901C82.7229 2.24364 82.2185 3.37632 82.2185 4.692H84.2185ZM85.042 2.84099C85.5901 2.34435 86.3414 2.056 87.3945 2.056V0.0559993C85.9517 0.0559993 84.687 0.463652 83.699 1.35901L85.042 2.84099ZM87.3945 2.056C88.4566 2.056 89.2126 2.33763 89.76 2.81658L91.077 1.31142C90.0884 0.446369 88.8284 0.0559993 87.3945 0.0559993V2.056ZM89.7736 2.82829C90.3095 3.28045 90.5705 3.83747 90.5705 4.584H92.5705C92.5705 3.26652 92.0635 2.14355 91.0634 1.29971L89.7736 2.82829ZM90.5705 4.584C90.5705 5.39569 90.2951 6.02898 89.7346 6.55446L91.1025 8.01354C92.0779 7.09902 92.5705 5.93231 92.5705 4.584H90.5705ZM89.747 6.54301C89.199 7.03965 88.4477 7.328 87.3945 7.328V9.328C88.8374 9.328 90.1021 8.92034 91.09 8.02499L89.747 6.54301ZM103.576 12.828H102.576V15.7249L104.363 13.4449L103.576 12.828ZM106.276 10.848L106.64 11.7793L106.65 11.7751L106.276 10.848ZM110.128 10.164H111.128V9.164H110.128V10.164ZM110.128 16.32L110.013 17.3134L111.128 17.442V16.32H110.128ZM105.124 17.4L104.438 16.6724L104.432 16.6774L104.427 16.6824L105.124 17.4ZM103.9 30V31H104.9V30H103.9ZM97.0597 30H96.0597V31H97.0597V30ZM97.0597 10.488V9.488H96.0597V10.488H97.0597ZM103.576 10.488H104.576V9.488H103.576V10.488ZM104.363 13.4449C104.943 12.7048 105.694 12.1496 106.64 11.7792L105.911 9.91676C104.65 10.4104 103.601 11.1752 102.789 12.2111L104.363 13.4449ZM106.65 11.7751C107.64 11.3752 108.793 11.164 110.128 11.164V9.164C108.582 9.164 107.168 9.40878 105.901 9.92089L106.65 11.7751ZM109.128 10.164V16.32H111.128V10.164H109.128ZM110.242 15.3266C109.598 15.2523 109.041 15.212 108.58 15.212V17.212C108.935 17.212 109.409 17.2437 110.013 17.3134L110.242 15.3266ZM108.58 15.212C106.932 15.212 105.509 15.662 104.438 16.6724L105.81 18.1276C106.418 17.554 107.299 17.212 108.58 17.212V15.212ZM104.427 16.6824C103.346 17.732 102.9 19.2525 102.9 21.036H104.9C104.9 19.5555 105.269 18.652 105.82 18.1176L104.427 16.6824ZM102.9 21.036V30H104.9V21.036H102.9ZM103.9 29H97.0597V31H103.9V29ZM98.0597 30V10.488H96.0597V30H98.0597ZM97.0597 11.488H103.576V9.488H97.0597V11.488ZM102.576 10.488V12.828H104.576V10.488H102.576ZM130.342 12.396L129.684 13.1493L129.69 13.1545L130.342 12.396ZM132.898 30V31H133.898V30H132.898ZM126.526 30H125.526V31H126.526V30ZM126.526 27.48H127.526L125.638 27.0194L126.526 27.48ZM116.842 29.532L116.41 30.4341L116.41 30.4341L116.842 29.532ZM114.322 27.408L113.466 27.9258L113.474 27.9391L113.483 27.9522L114.322 27.408ZM115.618 20.028L116.198 20.8427L116.207 20.8361L115.618 20.028ZM126.058 18.48V19.48H127.118L127.056 18.422L126.058 18.48ZM119.074 15.852L119.361 16.8098L119.372 16.8066L119.383 16.803L119.074 15.852ZM116.626 17.076L115.73 17.5204L116.276 18.6221L117.243 17.8623L116.626 17.076ZM114.322 12.432L113.767 11.5999L113.035 12.0881L113.426 12.8764L114.322 12.432ZM118.246 10.776L118.488 11.7462L118.499 11.7435L118.246 10.776ZM124.762 25.428L125.301 26.2703L125.301 26.2703L124.762 25.428ZM126.058 23.736L127 24.0704L127.058 23.9082V23.736H126.058ZM126.058 22.044H127.058V21.044H126.058V22.044ZM120.802 25.464L120.182 26.2489L120.182 26.2489L120.802 25.464ZM122.926 11.164C126.027 11.164 128.227 11.8771 129.684 13.1492L130.999 11.6428C129.048 9.93889 126.304 9.164 122.926 9.164V11.164ZM129.69 13.1545C131.102 14.3672 131.898 16.2981 131.898 19.164H133.898C133.898 15.9339 132.99 13.3528 130.993 11.6375L129.69 13.1545ZM131.898 19.164V30H133.898V19.164H131.898ZM132.898 29H126.526V31H132.898V29ZM127.526 30V27.48H125.526V30H127.526ZM125.638 27.0194C124.884 28.4718 123.394 29.324 120.766 29.324V31.324C123.849 31.324 126.199 30.2802 127.413 27.9406L125.638 27.0194ZM120.766 29.324C119.369 29.324 118.215 29.0801 117.273 28.6299L116.41 30.4341C117.677 31.0399 119.139 31.324 120.766 31.324V29.324ZM117.273 28.6299C116.309 28.1687 115.622 27.5744 115.161 26.8638L113.483 27.9522C114.174 29.0176 115.166 29.8393 116.41 30.4341L117.273 28.6299ZM115.177 26.8902C114.727 26.1469 114.494 25.2967 114.494 24.312H112.494C112.494 25.6313 112.812 26.8451 113.466 27.9258L115.177 26.8902ZM114.494 24.312C114.494 22.7635 115.064 21.6495 116.198 20.8427L115.038 19.2133C113.339 20.4225 112.494 22.1645 112.494 24.312H114.494ZM116.207 20.8361C117.37 19.9885 119.298 19.48 122.17 19.48V17.48C119.137 17.48 116.698 18.0035 115.029 19.2199L116.207 20.8361ZM122.17 19.48H126.058V17.48H122.17V19.48ZM127.056 18.422C126.983 17.1603 126.505 16.0852 125.532 15.3572C124.598 14.6594 123.345 14.384 121.918 14.384V16.384C123.13 16.384 123.887 16.6246 124.334 16.9588C124.74 17.2628 125.013 17.7357 125.059 18.538L127.056 18.422ZM121.918 14.384C120.869 14.384 119.817 14.5591 118.765 14.901L119.383 16.803C120.251 16.5209 121.095 16.384 121.918 16.384V14.384ZM118.786 14.8942C117.727 15.212 116.794 15.6722 116.008 16.2897L117.243 17.8623C117.802 17.4238 118.501 17.068 119.361 16.8098L118.786 14.8942ZM117.521 16.6316L115.217 11.9876L113.426 12.8764L115.73 17.5204L117.521 16.6316ZM114.876 13.264C115.843 12.6199 117.04 12.1082 118.488 11.7461L118.003 9.80586C116.38 10.2118 114.961 10.8041 113.767 11.5999L114.876 13.264ZM118.499 11.7435C119.979 11.3563 121.454 11.164 122.926 11.164V9.164C121.277 9.164 119.632 9.37966 117.993 9.80854L118.499 11.7435ZM122.674 27.004C123.635 27.004 124.522 26.7686 125.301 26.2703L124.223 24.5857C123.801 24.8554 123.297 25.004 122.674 25.004V27.004ZM125.301 26.2703C126.108 25.7535 126.67 24.9998 127 24.0704L125.115 23.4016C124.917 23.9602 124.615 24.3345 124.223 24.5857L125.301 26.2703ZM127.058 23.736V22.044H125.058V23.736H127.058ZM126.058 21.044H123.106V23.044H126.058V21.044ZM123.106 21.044C122.031 21.044 121.05 21.2163 120.312 21.7054C119.502 22.2424 119.118 23.0701 119.118 24.024H121.118C121.118 23.6579 121.231 23.4956 121.417 23.3726C121.675 23.2017 122.188 23.044 123.106 23.044V21.044ZM119.118 24.024C119.118 24.9184 119.477 25.6921 120.182 26.2489L121.421 24.6791C121.215 24.5159 121.118 24.3296 121.118 24.024H119.118ZM120.182 26.2489C120.869 26.7912 121.738 27.004 122.674 27.004V25.004C122.026 25.004 121.646 24.8568 121.421 24.6791L120.182 26.2489ZM144.775 28.848L144.3 29.7279L144.312 29.7342L144.775 28.848ZM139.843 24.168L140.7 23.652L140.7 23.652L139.843 24.168ZM139.843 10.632L138.987 10.116L138.987 10.116L139.843 10.632ZM144.775 5.988L145.243 6.87204L145.246 6.87007L144.775 5.988ZM158.131 5.52L157.727 6.43479L157.727 6.43479L158.131 5.52ZM162.739 9.048L163.41 9.78954L164.107 9.15936L163.521 8.4248L162.739 9.048ZM158.203 13.152L157.433 13.7903L158.1 14.594L158.874 13.8935L158.203 13.152ZM148.591 11.1L148.105 10.2258L148.097 10.2305L148.591 11.1ZM146.107 13.656L145.229 13.1785L145.225 13.1854L146.107 13.656ZM146.107 21.18L145.221 21.6426L145.227 21.6542L145.233 21.6656L146.107 21.18ZM148.591 23.7L148.097 24.5695L148.106 24.5742L148.591 23.7ZM158.203 21.648L158.874 20.9065L158.1 20.206L157.433 21.0097L158.203 21.648ZM162.739 25.752L163.521 26.3752L164.107 25.6406L163.41 25.0105L162.739 25.752ZM158.131 29.28L157.727 28.3652L157.727 28.3652L158.131 29.28ZM151.903 29.504C149.407 29.504 147.193 28.9833 145.238 27.9618L144.312 29.7342C146.582 30.9207 149.12 31.504 151.903 31.504V29.504ZM145.25 27.9682C143.316 26.9233 141.805 25.4875 140.7 23.652L138.987 24.684C140.281 26.8325 142.058 28.5167 144.3 29.7278L145.25 27.9682ZM140.7 23.652C139.601 21.8287 139.043 19.7539 139.043 17.4H137.043C137.043 20.0861 137.685 22.5233 138.987 24.684L140.7 23.652ZM139.043 17.4C139.043 15.0461 139.601 12.9713 140.7 11.148L138.987 10.116C137.685 12.2767 137.043 14.7139 137.043 17.4H139.043ZM140.7 11.148C141.804 9.31434 143.313 7.89243 145.243 6.87203L144.308 5.10396C142.062 6.29157 140.282 7.96566 138.987 10.116L140.7 11.148ZM145.246 6.87007C147.199 5.82721 149.41 5.296 151.903 5.296V3.296C149.116 3.296 146.575 3.89279 144.304 5.10592L145.246 6.87007ZM151.903 5.296C154.088 5.296 156.023 5.68235 157.727 6.43479L158.535 4.60521C156.543 3.72565 154.327 3.296 151.903 3.296V5.296ZM157.727 6.43479C159.432 7.18749 160.837 8.2652 161.957 9.6712L163.521 8.4248C162.194 6.7588 160.526 5.48451 158.535 4.60521L157.727 6.43479ZM162.068 8.30646L157.532 12.4105L158.874 13.8935L163.41 9.78954L162.068 8.30646ZM158.973 12.5137C157.172 10.3421 154.92 9.2 152.263 9.2V11.2C154.262 11.2 155.97 12.0259 157.433 13.7903L158.973 12.5137ZM152.263 9.2C150.744 9.2 149.35 9.53471 148.106 10.2258L149.077 11.9742C149.993 11.4653 151.046 11.2 152.263 11.2V9.2ZM148.097 10.2305C146.873 10.926 145.914 11.9165 145.229 13.1785L146.986 14.1335C147.5 13.1875 148.197 12.474 149.085 11.9695L148.097 10.2305ZM145.225 13.1854C144.56 14.4315 144.243 15.8458 144.243 17.4H146.243C146.243 16.1222 146.502 15.0405 146.99 14.1266L145.225 13.1854ZM144.243 17.4C144.243 18.9548 144.56 20.3772 145.221 21.6426L146.994 20.7174C146.502 19.7748 146.243 18.6772 146.243 17.4H144.243ZM145.233 21.6656C145.92 22.9031 146.879 23.8772 148.097 24.5695L149.085 22.8305C148.192 22.3228 147.494 21.6169 146.981 20.6944L145.233 21.6656ZM148.106 24.5742C149.35 25.2653 150.744 25.6 152.263 25.6V23.6C151.046 23.6 149.993 23.3347 149.077 22.8258L148.106 24.5742ZM152.263 25.6C154.92 25.6 157.172 24.4579 158.973 22.2863L157.433 21.0097C155.97 22.7741 154.262 23.6 152.263 23.6V25.6ZM157.532 22.3895L162.068 26.4935L163.41 25.0105L158.874 20.9065L157.532 22.3895ZM161.957 25.1288C160.837 26.5348 159.432 27.6125 157.727 28.3652L158.535 30.1948C160.526 29.3155 162.194 28.0412 163.521 26.3752L161.957 25.1288ZM157.727 28.3652C156.023 29.1177 154.088 29.504 151.903 29.504V31.504C154.327 31.504 156.543 31.0743 158.535 30.1948L157.727 28.3652ZM186.632 21.972V22.972H187.567L187.629 22.0385L186.632 21.972ZM172.448 21.972V20.972H171.122L171.486 22.2467L172.448 21.972ZM174.104 24.312L173.543 25.1403L173.557 25.1497L173.571 25.1586L174.104 24.312ZM179.648 24.708L179.293 23.7729L179.282 23.7772L179.648 24.708ZM181.736 23.412L182.456 22.7189L181.8 22.0362L181.083 22.6546L181.736 23.412ZM185.336 27.156L186.08 27.824L186.7 27.1326L186.056 26.4629L185.336 27.156ZM171.008 29.028L171.455 28.1336L171.008 29.028ZM166.976 25.428L166.122 25.9484L166.128 25.958L166.976 25.428ZM166.94 15.06L166.086 14.5396L166.083 14.5435L166.94 15.06ZM170.792 11.46L170.324 10.5762L170.324 10.5762L170.792 11.46ZM181.592 11.388L181.134 12.277L181.144 12.2824L181.592 11.388ZM185.336 14.88L184.476 15.3905L184.48 15.3985L184.485 15.4064L185.336 14.88ZM173.672 15.924L173.031 15.1558L173.025 15.1611L173.019 15.1666L173.672 15.924ZM172.34 18.372L171.356 18.1891L171.136 19.372H172.34V18.372ZM180.332 18.372V19.372H181.535L181.315 18.1891L180.332 18.372ZM178.964 15.924L178.311 16.6814L178.317 16.6869L178.323 16.6922L178.964 15.924ZM185.74 20.28C185.74 20.262 185.735 20.3636 185.715 20.6753C185.697 20.9559 185.67 21.3657 185.634 21.9055L187.629 22.0385C187.699 20.9955 187.74 20.3722 187.74 20.28H185.74ZM186.632 20.972H172.448V22.972H186.632V20.972ZM171.486 22.2467C171.834 23.465 172.52 24.4478 173.543 25.1403L174.664 23.4837C174.056 23.0722 173.637 22.495 173.409 21.6973L171.486 22.2467ZM173.571 25.1586C174.607 25.8097 175.848 26.104 177.236 26.104V24.104C176.128 24.104 175.28 23.8703 174.636 23.4654L173.571 25.1586ZM177.236 26.104C178.261 26.104 179.196 25.9599 180.013 25.6388L179.282 23.7772C178.755 23.9841 178.082 24.104 177.236 24.104V26.104ZM180.002 25.643C180.829 25.3292 181.624 24.8283 182.389 24.1694L181.083 22.6546C180.455 23.1957 179.858 23.5588 179.293 23.773L180.002 25.643ZM181.015 24.1051L184.615 27.8491L186.056 26.4629L182.456 22.7189L181.015 24.1051ZM184.591 26.488C182.936 28.332 180.47 29.324 177.02 29.324V31.324C180.865 31.324 183.943 30.204 186.08 27.824L184.591 26.488ZM177.02 29.324C174.867 29.324 173.021 28.9167 171.455 28.1336L170.56 29.9224C172.45 30.8673 174.612 31.324 177.02 31.324V29.324ZM171.455 28.1336C169.88 27.3462 168.68 26.2675 167.824 24.898L166.128 25.958C167.192 27.6605 168.679 28.9818 170.56 29.9224L171.455 28.1336ZM167.83 24.9076C166.997 23.541 166.572 21.9838 166.572 20.208H164.572C164.572 22.3202 165.082 24.243 166.122 25.9484L167.83 24.9076ZM166.572 20.208C166.572 18.4536 166.986 16.9191 167.796 15.5765L166.083 14.5435C165.069 16.2249 164.572 18.1224 164.572 20.208H166.572ZM167.794 15.5804C168.633 14.2023 169.782 13.1259 171.259 12.3438L170.324 10.5762C168.537 11.5221 167.118 12.8457 166.086 14.5396L167.794 15.5804ZM171.259 12.3438C172.733 11.5638 174.405 11.164 176.3 11.164V9.164C174.114 9.164 172.115 9.62815 170.324 10.5762L171.259 12.3438ZM176.3 11.164C178.099 11.164 179.704 11.5404 181.134 12.277L182.05 10.499C180.311 9.60358 178.388 9.164 176.3 9.164V11.164ZM181.144 12.2824C182.555 12.9879 183.661 14.0179 184.476 15.3905L186.195 14.3695C185.186 12.6701 183.796 11.3721 182.039 10.4936L181.144 12.2824ZM184.485 15.4064C185.308 16.7345 185.74 18.3451 185.74 20.28H187.74C187.74 18.0389 187.236 16.0495 186.186 14.3536L184.485 15.4064ZM176.336 14.024C175.077 14.024 173.954 14.387 173.031 15.1558L174.312 16.6922C174.829 16.261 175.482 16.024 176.336 16.024V14.024ZM173.019 15.1666C172.126 15.9358 171.584 16.9671 171.356 18.1891L173.323 18.5549C173.479 17.7129 173.825 17.1122 174.325 16.6814L173.019 15.1666ZM172.34 19.372H180.332V17.372H172.34V19.372ZM181.315 18.1891C181.086 16.9572 180.524 15.923 179.604 15.1558L178.323 16.6922C178.843 17.125 179.194 17.7228 179.348 18.5549L181.315 18.1891ZM179.617 15.1666C178.712 14.387 177.593 14.024 176.336 14.024V16.024C177.19 16.024 177.823 16.261 178.311 16.6814L179.617 15.1666ZM191.693 3.288V2.288H190.693V3.288H191.693ZM198.533 3.288H199.533V2.288H198.533V3.288ZM198.533 30V31H199.533V30H198.533ZM191.693 30H190.693V31H191.693V30ZM191.693 4.288H198.533V2.288H191.693V4.288ZM197.533 3.288V30H199.533V3.288H197.533ZM198.533 29H191.693V31H198.533V29ZM192.693 30V3.288H190.693V30H192.693ZM204.778 3.288V2.288H203.778V3.288H204.778ZM211.618 3.288H212.618V2.288H211.618V3.288ZM211.618 30V31H212.618V30H211.618ZM204.778 30H203.778V31H204.778V30ZM204.778 4.288H211.618V2.288H204.778V4.288ZM210.618 3.288V30H212.618V3.288H210.618ZM211.618 29H204.778V31H211.618V29ZM205.778 30V3.288H203.778V30H205.778Z" fill="white"/>
</g>
<defs>
<filter id="filter0_d" x="0.392578" y="0.0559692" width="216.226" height="39.448" filterUnits="userSpaceOnUse" color-interpolation-filters="sRGB">
<feFlood flood-opacity="0" result="BackgroundImageFix"/>
<feColorMatrix in="SourceAlpha" type="matrix" values="0 0 0 0 0 0 0 0 0 0 0 0 0 0 0 0 0 0 127 0"/>
<feOffset dy="4"/>
<feGaussianBlur stdDeviation="2"/>
<feColorMatrix type="matrix" values="0 0 0 0 1 0 0 0 0 1 0 0 0 0 1 0 0 0 0.5 0"/>
<feBlend mode="normal" in2="BackgroundImageFix" result="effect1_dropShadow"/>
<feBlend mode="normal" in="SourceGraphic" in2="effect1_dropShadow" result="shape"/>
</filter>
</defs>
</svg>
